<?xml version="1.0" encoding="utf-8"?>
<!-- Generator: Adobe Illustrator 27.2.0, SVG Export Plug-In . SVG Version: 6.00 Build 0)  -->
<svg version="1.1" id="Capa_1" xmlns="http://www.w3.org/2000/svg" xmlns:xlink="http://www.w3.org/1999/xlink" x="0px" y="0px"
	 viewBox="0 0 1080 1080" style="enable-background:new 0 0 1080 1080;" xml:space="preserve">
<style type="text/css">
	.st0{fill:#FFFFFF;}
</style>
<g>
	<path class="st0" d="M376.3,701.4c0-107.6,0.1-215.3,0.1-322.9l1.3-1.3c99.6-0.2,199.3-0.9,298.9-0.2c18.4,0.1,23.8-4.3,23.6-23.1
		c-1-92.3-0.4-184.7-0.4-277.1c0-7.2,0-14.4,0-23.4c7.4-0.5,13.3-1.1,19.1-1.1c96-0.1,192,0.3,288-0.4c16-0.1,20.6,4.2,20.5,20.4
		c-0.5,311.7-0.5,623.4,0,935.1c0,15.7-4,20.9-20.3,20.8c-96-0.7-192-0.3-288-0.4c-5.4,0-10.7-0.6-18.1-1
		c-0.4-7.6-1.1-14.6-1.1-21.6c-0.1-93.6-0.4-187.2,0.3-280.7c0.1-16.7-4.6-21.5-21.5-21.4c-100.2,0.6-200.5,0.1-300.7-0.1
		C377.3,702.4,376.8,701.9,376.3,701.4z"/>
	<path class="st0" d="M376.4,378.5c-105.7,0.2-211.3,0.4-317,0.6c-1.7,0-3.4-0.9-6.5-1.7c0-107.5,0-215.1,0-323.9
		c108.1,0,215.3,0,323.1,0c0.8,2.5,2.2,4.7,2.2,6.8c-0.1,105.7-0.3,211.3-0.5,317C377.7,377.2,376.4,378.5,376.4,378.5z"/>
	<path class="st0" d="M377.9,702.9c0.2,105,0.4,210.1,0.5,315.1c0,2.3-0.8,4.6-1.5,8.3c-107.9,0-215.5,0-324.3,0
		c0-108.1,0-215.3,0-325c108.2,0,216,0,323.7,0C376.8,701.9,377.3,702.4,377.9,702.9z"/>
</g>
</svg>
