<?xml version="1.0" encoding="utf-8"?>
<!-- Generator: Adobe Illustrator 27.2.0, SVG Export Plug-In . SVG Version: 6.00 Build 0)  -->
<svg version="1.1" id="Capa_1" xmlns="http://www.w3.org/2000/svg" xmlns:xlink="http://www.w3.org/1999/xlink" x="0px" y="0px"
	 viewBox="0 0 1080 1080" style="enable-background:new 0 0 1080 1080;" xml:space="preserve">
<style type="text/css">
	.st0{fill:#FFFFFF;}
</style>
<path class="st0" d="M259.9,190.8C352.3,316,444,440.1,537.6,566.9c94.6-126.8,187-250.5,282.4-378.3c12.8,18.5,23.6,33.3,33.6,48.7
	c60.2,91.9,119.7,184.2,180.6,275.7c10.8,16.2,10.6,26.8-1.3,42.6c-78.8,104.1-156.7,208.9-234.3,314
	c-11.2,15.2-23.3,21.9-42.6,21.8c-145-0.7-290-0.7-435,0c-18.3,0.1-29.8-6.3-40.4-20.7c-78.8-106.5-158.3-212.3-236.7-319
	c-5.4-7.3-8.1-23.3-3.9-30C109,414,179.2,307.1,249.3,200.2C251.2,197.4,254.4,195.6,259.9,190.8z"/>
</svg>
