<?xml version="1.0" encoding="utf-8"?>
<!-- Generator: Adobe Illustrator 27.2.0, SVG Export Plug-In . SVG Version: 6.00 Build 0)  -->
<svg version="1.1" id="Capa_1" xmlns="http://www.w3.org/2000/svg" xmlns:xlink="http://www.w3.org/1999/xlink" x="0px" y="0px"
	 viewBox="0 0 1080 1080" style="enable-background:new 0 0 1080 1080;" xml:space="preserve">
<style type="text/css">
	.st0{fill:#FFFFFF;}
</style>
<path class="st0" d="M259.9,218.4C352.3,343.6,444,467.7,537.6,594.5C632.2,467.7,724.6,344,820,216.2
	c12.8,18.5,23.6,33.3,33.6,48.7c60.2,91.9,119.7,184.2,180.6,275.7c10.8,16.2,10.6,26.8-1.3,42.6c-78.8,104.1-156.7,208.9-234.3,314
	c-11.2,15.2-23.3,21.9-42.6,21.8c-145-0.7-290-0.7-435,0c-18.3,0.1-29.8-6.3-40.4-20.7C201.8,791.8,122.3,686,43.9,579.3
	c-5.4-7.3-8.1-23.3-3.9-30C109,441.6,179.2,334.7,249.3,227.8C251.2,225,254.4,223.2,259.9,218.4z"/>
</svg>
