<?xml version="1.0" encoding="utf-8"?>
<!-- Generator: Adobe Illustrator 27.2.0, SVG Export Plug-In . SVG Version: 6.00 Build 0)  -->
<svg version="1.1" id="Capa_1" xmlns="http://www.w3.org/2000/svg" xmlns:xlink="http://www.w3.org/1999/xlink" x="0px" y="0px"
	 viewBox="0 0 1080 1080" style="enable-background:new 0 0 1080 1080;" xml:space="preserve">
<style type="text/css">
	.st0{fill:#FFFFFF;}
</style>
<g>
	<path class="st0" d="M217.6,1011.7c-30.8,0-61.6,0.8-92.4-0.2c-55.8-1.8-86.2-46.7-66.5-99C158.1,647.6,258,382.9,357.9,118.2
		c12.2-32.3,36-49.4,70.5-49.7c62.6-0.5,125.2-1,187.8,0.2c57.1,1,88,47.2,67.8,100.9C584.8,433.5,485,697.2,385.7,961
		c-12.8,34-37,50.4-72.7,50.6C281.1,1011.9,249.3,1011.7,217.6,1011.7z M315.3,896.7c-25.4-44.2-9.1-72.1,30-95.9
		c-49.2,10.1-71.1-13.6-79-61.8c-11.1,24.5-14.3,45.7-26.5,54.8c-12.2,9-33.4,5.8-55.8,8.6c16.5,14.7,36.1,24.1,40.4,38.1
		c4.7,15.5-4.8,35.3-10.2,64.1C248.8,862.6,280.2,863.4,315.3,896.7z M405.7,225.1c47.5,19.6,49.8,52.4,34.9,94.1
		c34.1-37.4,65-28,99.8,5.9c-6.8-27.6-17.8-46.7-13.3-61c4.8-15,24.3-25.4,37.4-37.8c-44.2,4.1-69-15.2-78.7-60.5
		C480.5,217.2,449.8,227.3,405.7,225.1z M373.2,454c-3.4,52-35.6,60.4-78.4,59.2c46.3,20.2,46.6,52.4,30.6,92.7
		c33.8-33.1,64.6-33.2,98.2-0.5c-14.9-39.2-16.4-71.8,29.4-93.2C408.4,515.9,382.3,500.7,373.2,454z"/>
	<path class="st0" d="M753,148.3c8.1,21,16.3,42,24.3,63.1c80.3,212.4,160.5,424.9,240.8,637.4c27.7,73.3-8.1,145.1-79.2,160.4
		c-17.6,3.8-27.5,0.2-34.1-17.7C827.4,784.3,749.5,577.3,672,370.1c-2.6-7-5-16.1-2.7-22.5c24.3-66.9,49.6-133.4,74.7-200.1
		C747,147.8,750,148.1,753,148.3z"/>
	<path class="st0" d="M637.3,448c67.3,188.5,133.3,373.3,199.6,558.9c-110.2,16.8-173.5-6.7-204.7-106.3
		c-22.5-71.8-50.1-142-74.4-213.3c-3.9-11.5-6.3-26.2-2.4-37.1c22.4-63.5,46.8-126.4,70.7-189.4C627.4,457.6,630.9,455.2,637.3,448z
		"/>
</g>
</svg>
