<?xml version="1.0" encoding="utf-8"?>
<!-- Generator: Adobe Illustrator 27.2.0, SVG Export Plug-In . SVG Version: 6.00 Build 0)  -->
<svg version="1.1" id="Capa_1" xmlns="http://www.w3.org/2000/svg" xmlns:xlink="http://www.w3.org/1999/xlink" x="0px" y="0px"
	 viewBox="0 0 1080 810.9" style="enable-background:new 0 0 1080 810.9;" xml:space="preserve">
<style type="text/css">
	.st0{fill:#FFFFFF;}
	.st1{display:none;}
	.st2{display:inline;}
	.st3{fill:#FD004E;}
	.st4{display:inline;fill:#19469F;}
	.st5{display:inline;fill:#EF3241;}
	.st6{display:inline;fill:#4A22F4;}
	.st7{display:inline;fill:#5FD5DF;}
	.st8{fill:#F02D00;}
</style>
<path class="st0" d="M918.9,810.9H161.1C72.1,810.9,0,738.8,0,649.8V161.1C0,72.1,72.1,0,161.1,0h757.8c89,0,161.1,72.1,161.1,161.1
	v488.7C1080,738.8,1007.9,810.9,918.9,810.9z"/>
<g class="st1">
	<g class="st2">
		<path class="st3" d="M492.5,313.2c-28.5,0-57.1,0-85.6,0c-42.7,0-85.3,0-128,0c-22.8,0-22.9-0.1-22.9-23.7c0-47.3,0-94.7,0-142
			c0-25.1,0-25.2,24.6-25.2c142.6,0.2,285.2,0.3,427.9,0.7c15.1,0,30.8-0.4,45.2,3.4c71.1,18.4,94.2,104.5,41.8,157.2
			c-73.7,74.2-148.4,147.4-222.7,221c-56,55.5-112.1,111-168.2,166.5c-5.3,5.2-10.8,10.3-17.2,16.3c-5.7-5.3-10.5-9.3-15-13.8
			c-34.6-34.8-68.8-70.1-103.9-104.4c-10.5-10.2-12.3-16.1-0.5-27.6c70.7-68.9,140.5-138.8,210.8-208.1c5.3-5.2,12.5-8.5,18.9-12.7
			C496,318.3,494.2,315.8,492.5,313.2z"/>
		<path class="st3" d="M729.3,688.5c-26.3,0-52.5-0.4-78.8,0.2c-12.2,0.3-18-2.9-17.8-16.6c0.6-53.1,0.5-106.2,0.1-159.4
			c-0.1-12.3,4.7-16.2,16.6-16.1c52.5,0.4,105.1,0.5,157.6-0.1c13.3-0.1,17,5.1,16.8,17.6c-0.5,52.5-0.6,105.1,0.1,157.6
			c0.2,13.5-5.1,17.1-17.5,16.8C780.7,688.1,755,688.5,729.3,688.5z"/>
	</g>
</g>
<g class="st1">
	<path class="st4" d="M346.4,689.9c-18.5,0-37,0.5-55.5-0.1c-33.5-1.1-51.8-28-40-59.5c59.7-159,119.7-318,179.7-476.9
		c7.3-19.4,21.6-29.7,42.3-29.8c37.6-0.3,75.2-0.6,112.8,0.1c34.3,0.6,52.9,28.4,40.7,60.6C566.9,342.7,507,501.1,447.3,659.5
		c-7.7,20.4-22.2,30.3-43.7,30.4C384.6,690,365.5,689.9,346.4,689.9z M405.1,620.9c-15.3-26.6-5.5-43.3,18-57.6
		c-29.6,6.1-42.7-8.2-47.5-37.1c-6.7,14.7-8.6,27.5-15.9,32.9c-7.3,5.4-20,3.5-33.5,5.2c9.9,8.8,21.7,14.5,24.2,22.9
		c2.8,9.3-2.9,21.2-6.1,38.5C365.1,600.4,384,600.9,405.1,620.9z M459.4,217.6c28.5,11.8,29.9,31.5,20.9,56.5
		c20.5-22.5,39-16.8,59.9,3.5c-4.1-16.6-10.7-28.1-8-36.6c2.9-9,14.6-15.2,22.5-22.7c-26.5,2.4-41.4-9.2-47.2-36.3
		C504.3,212.9,485.9,218.9,459.4,217.6z M439.9,355.1c-2,31.2-21.4,36.3-47.1,35.5c27.8,12.1,28,31.5,18.3,55.6
		c20.3-19.9,38.8-20,59-0.3c-8.9-23.5-9.8-43.1,17.7-55.9C461,392.2,445.3,383.1,439.9,355.1z"/>
	<path class="st5" d="M667.9,171.5c4.9,12.6,9.8,25.2,14.6,37.9C730.7,337,778.8,464.5,827,592.1c16.6,44-4.9,87.1-47.6,96.3
		c-10.5,2.3-16.5,0.2-20.5-10.6c-46.4-124.4-93.2-248.7-139.7-373.1c-1.6-4.2-3-9.7-1.6-13.5C632.3,251,647.5,211,662.5,171
		C664.3,171.2,666.1,171.4,667.9,171.5z"/>
	<path class="st5" d="M596.5,346.3c40.4,113.2,82,231.5,121.8,343c-65.4,0.9-104.2-6.2-122.9-66c-13.5-43.1-30.1-85.3-44.7-128.1
		c-2.3-6.9-3.8-15.8-1.5-22.3c13.4-38.2,28.1-75.9,42.5-113.7C592.5,357.2,593.3,352.3,596.5,346.3z"/>
</g>
<g class="st1">
	<path class="st6" d="M444.7,499.4c0-62.6,0-125.3,0.1-187.9l0.7-0.7c58-0.1,116-0.5,174-0.1c10.7,0.1,13.8-2.5,13.7-13.5
		c-0.6-53.8-0.3-107.5-0.3-161.3c0-4.2,0-8.4,0-13.6c4.3-0.3,7.7-0.7,11.1-0.7c55.9,0,111.8,0.2,167.6-0.2c9.3-0.1,12,2.4,11.9,11.9
		c-0.3,181.4-0.3,362.9,0,544.3c0,9.2-2.3,12.2-11.8,12.1c-55.9-0.4-111.8-0.2-167.6-0.2c-3.1,0-6.2-0.3-10.6-0.6
		c-0.2-4.4-0.6-8.5-0.6-12.6c0-54.5-0.2-108.9,0.2-163.4c0.1-9.7-2.7-12.5-12.5-12.5c-58.3,0.4-116.7,0-175.1-0.1
		C445.3,500,445,499.7,444.7,499.4z"/>
	<path class="st7" d="M444.8,311.4c-61.5,0.1-123,0.2-184.5,0.3c-1,0-2-0.5-3.8-1c0-62.5,0-125.2,0-188.5c62.9,0,125.3,0,188.1,0
		c0.5,1.4,1.3,2.7,1.3,4c-0.1,61.5-0.2,123-0.3,184.5C445.5,310.7,444.8,311.4,444.8,311.4z"/>
	<path class="st6" d="M445.6,500.3c0.1,61.1,0.2,122.3,0.3,183.4c0,1.4-0.5,2.7-0.9,4.8c-62.8,0-125.4,0-188.8,0
		c0-62.9,0-125.3,0-189.2c63,0,125.7,0,188.4,0C445,499.7,445.3,500,445.6,500.3z"/>
</g>
<path class="st8" d="M313.7,123.4C388.4,224.5,462.4,324.8,538,427.2c76.5-102.4,151.1-202.4,228.2-305.6
	c10.3,14.9,19,26.9,27.1,39.3c48.6,74.3,96.7,148.8,145.9,222.7c8.7,13.1,8.6,21.7-1,34.4c-63.7,84.1-126.6,168.8-189.3,253.7
	c-9.1,12.3-18.8,17.7-34.4,17.6c-117.1-0.6-234.3-0.6-351.4,0c-14.8,0.1-24.1-5.1-32.7-16.7c-63.6-86-127.9-171.5-191.2-257.7
	c-4.3-5.9-6.6-18.8-3.1-24.2c55.7-87,112.5-173.3,169.1-259.7C306.6,128.7,309.3,127.2,313.7,123.4z"/>
</svg>
