<?xml version="1.0" encoding="utf-8"?>
<!-- Generator: Adobe Illustrator 27.2.0, SVG Export Plug-In . SVG Version: 6.00 Build 0)  -->
<svg version="1.1" id="Capa_1" xmlns="http://www.w3.org/2000/svg" xmlns:xlink="http://www.w3.org/1999/xlink" x="0px" y="0px"
	 viewBox="0 0 1080 1080" style="enable-background:new 0 0 1080 1080;" xml:space="preserve">
<style type="text/css">
	.st0{fill:#FFFFFF;}
</style>
<g>
	<path class="st0" d="M461,386.5c-47.5,0-94.9,0-142.4,0c-71,0-141.9,0.1-212.9,0c-38-0.1-38.1-0.2-38.1-39.4
		c-0.1-78.8,0-157.5,0-236.3c0-41.8,0.1-42,41-41.9c237.2,0.3,474.4,0.5,711.7,1.2c25.1,0.1,51.3-0.6,75.2,5.6
		c118.2,30.5,156.6,173.8,69.5,261.5C842.4,460.8,718.1,582.5,594.5,705C501.3,797.3,408,889.6,314.8,981.9
		c-8.8,8.7-17.9,17.1-28.6,27.2c-9.5-8.7-17.5-15.5-24.9-22.9c-57.5-57.9-114.4-116.6-172.8-173.7c-17.4-17-20.5-26.8-0.9-45.8
		C205.3,652,321.3,535.7,438.3,420.4c8.8-8.7,20.8-14.1,31.4-21.1C466.8,395.1,463.9,390.8,461,386.5z"/>
	<path class="st0" d="M854.8,1010.7c-43.7,0-87.4-0.7-131.1,0.3c-20.3,0.4-29.9-4.9-29.6-27.6c1-88.3,0.8-176.7,0.1-265.1
		c-0.2-20.5,7.8-26.9,27.6-26.7c87.4,0.7,174.8,0.8,262.1-0.1c22.2-0.2,28.2,8.5,28,29.3c-0.8,87.4-1,174.8,0.1,262.1
		c0.3,22.5-8.5,28.5-29.1,28C940.3,1010,897.6,1010.7,854.8,1010.7z"/>
</g>
</svg>
