<?xml version="1.0" encoding="utf-8"?>
<!-- Generator: Adobe Illustrator 27.2.0, SVG Export Plug-In . SVG Version: 6.00 Build 0)  -->
<svg version="1.1" id="Capa_1" xmlns="http://www.w3.org/2000/svg" xmlns:xlink="http://www.w3.org/1999/xlink" x="0px" y="0px"
	 viewBox="0 0 1080 1080" style="enable-background:new 0 0 1080 1080;" xml:space="preserve">
<style type="text/css">
	.st0{fill:#FFFFFF;}
	.st1{fill:none;stroke:#F79500;stroke-width:13.2056;stroke-miterlimit:10;}
	.st2{fill:#F79500;}
	.st3{fill:#2FA3F7;}
	.st4{fill:#9C9CFF;}
	.st5{fill:#FF3366;}
	.st6{fill:#FF61FB;}
	.st7{fill:#FF60FA;}
	.st8{fill:#9A9AFF;}
</style>
<g id="_16_00000011749692197453352300000010011362687508933055_">
	<path class="st8" d="M867.9,1010H249.6c-81,0-146.9-65.9-146.9-146.9V244.9c0-81,65.9-146.9,146.9-146.9h618.3
		c81,0,146.9,65.9,146.9,146.9v618.3C1014.7,944.2,948.9,1010,867.9,1010z M249.6,110.7c-74,0-134.2,60.2-134.2,134.2v618.3
		c0,74,60.2,134.2,134.2,134.2h618.3c74,0,134.2-60.2,134.2-134.2V244.9c0-74-60.2-134.2-134.2-134.2H249.6z"/>
</g>
<g>
	<path class="st8" d="M483.3,654.2H345.7l-28,87.2c-0.4,1.6-1.3,3-2.6,4c-1.3,1-2.9,1.5-4.5,1.4h-69.7c-4,0-5.4-2.2-4.2-6.6
		l119.2-341.8c1.2-3.6,2.4-7.1,3.6-11.6c1.6-7.9,2.4-16,2.4-24.1c-0.1-0.6,0-1.1,0.2-1.7c0.2-0.5,0.5-1,0.9-1.4
		c0.4-0.4,0.9-0.7,1.4-0.9c0.5-0.2,1.1-0.2,1.7-0.2h94.7c2.8,0,4.4,1,4.8,3l135.2,379.3c1.2,4,0,6-3.6,6h-77.5
		c-1.3,0.1-2.7-0.2-3.8-1c-1.1-0.8-1.9-1.9-2.2-3.2L483.3,654.2z M367.2,580.7h94.1c-2.4-7.9-5.2-16.9-8.3-26.8
		c-3.2-9.9-6.6-20.6-10.1-31.9c-3.6-11.3-7.1-22.6-10.7-34c-3.6-11.3-6.9-22.2-9.8-32.8c-3-10.5-5.7-20.2-8-28.9h-0.6
		c-3.4,16.1-7.5,32-12.5,47.7c-5.6,17.9-11.2,36.1-17,54.8C378.4,547.5,372.7,564.8,367.2,580.7z"/>
	<path class="st8" d="M820,620.3H702.6c1.4,11.6,5.3,22.8,11.3,32.8c6.7,9.9,16.1,17.7,27.1,22.3c14.9,6.5,31.1,9.6,47.4,9.3
		c12.9-0.2,25.8-1.7,38.4-4.2c11.3-1.5,22.4-4.4,33-8.6c2-1.6,3-0.6,3,3v56.6c0.1,1.5-0.2,3.1-0.9,4.5c-0.7,1.1-1.6,2-2.7,2.7
		c-11.8,5.2-24.2,8.9-36.9,11c-17.3,3.2-34.8,4.7-52.4,4.5c-28.2,0-51.8-4.4-70.9-13.1c-18-7.9-33.9-20-46.5-35.2
		c-11.7-14.3-20.4-30.8-25.6-48.6c-5.1-17.5-7.7-35.7-7.7-53.9c-0.1-19.9,3.1-39.7,9.2-58.7c5.9-18.5,15.3-35.7,27.7-50.6
		c12.2-14.8,27.4-26.8,44.7-35.2c17.5-8.5,38.1-11.6,62-11.6c19.8-0.5,39.4,3.4,57.5,11.3c15.2,6.5,28.6,16.6,39,29.5
		c9.8,12.6,17.2,26.8,22,42c4.7,14.6,7.1,29.9,7.1,45.3c0,8.7-0.3,16.7-0.9,23.8c-0.6,7.1-1.1,12.3-1.5,15.5
		c-0.2,1.3-0.8,2.5-1.8,3.4c-1,0.9-2.3,1.4-3.6,1.4c-2.4,0-6.5,0.3-12.2,0.9c-5.8,0.6-12.9,1-21.4,1.2
		C838.5,621.7,829.5,620.3,820,620.3z M702.6,566h78c9.5,0,16.6-0.1,21.2-0.3c3.1-0.3,6-1.3,8.6-2.9v-3.6c-0.1-4.7-0.9-9.3-2.4-13.7
		c-3.2-10.2-9.7-19-18.4-25.1c-8.7-6.1-19.2-9.2-29.9-8.8c-10-0.6-20,1.7-28.7,6.7c-8.7,5-15.8,12.4-20.4,21.3
		C706.6,547.9,703.9,556.8,702.6,566L702.6,566z"/>
</g>
</svg>
