<?xml version="1.0" encoding="utf-8"?>
<!-- Generator: Adobe Illustrator 27.2.0, SVG Export Plug-In . SVG Version: 6.00 Build 0)  -->
<svg version="1.1" id="Capa_1" xmlns="http://www.w3.org/2000/svg" xmlns:xlink="http://www.w3.org/1999/xlink" x="0px" y="0px"
	 viewBox="0 0 1080 1080" style="enable-background:new 0 0 1080 1080;" xml:space="preserve">
<style type="text/css">
	.st0{fill:#FFFFFF;}
	.st1{fill:none;stroke:#F79500;stroke-width:13.2056;stroke-miterlimit:10;}
	.st2{fill:#F79500;}
	.st3{fill:none;stroke:#2FA3F7;stroke-width:12.6337;stroke-miterlimit:10;}
	.st4{fill:#2FA3F7;}
	.st5{fill:none;stroke:#9C9CFF;stroke-width:13.1638;stroke-miterlimit:10;}
	.st6{fill:#9C9CFF;}
	.st7{fill:none;stroke:#FF3366;stroke-width:12.554;stroke-miterlimit:10;}
	.st8{fill:#FF3366;}
	.st9{fill:none;stroke:#FF61FB;stroke-width:12.457;stroke-miterlimit:10;}
	.st10{fill:#FF60FA;}
	.st11{fill:none;stroke:#9A9AFF;stroke-width:12.6902;stroke-miterlimit:10;}
	.st12{fill:#9A9AFF;}
</style>
<g>
	<path id="_16" class="st1" d="M218.3,72.1h643.4c80.8,0,146.2,65.5,146.2,146.2v643.4c0,80.8-65.5,146.2-146.2,146.2H218.3
		c-80.8,0-146.2-65.5-146.2-146.2V218.3C72.1,137.6,137.6,72.1,218.3,72.1z"/>
	<path id="_30" class="st2" d="M528.4,641.8H385.5l-29.2,95.4c-0.8,3.4-3.9,5.7-7.4,5.6h-72.4c-4.1,0-5.6-2.3-4.3-6.8l123.3-356.1
		c1.2-3.7,2.5-7.9,3.7-12.7c1.7-6.9,2.5-14,2.5-21.2c-0.3-2.1,1.2-4,3.2-4.3c0.4-0.1,0.7-0.1,1.1,0h98.3c2.9,0,4.5,1,4.9,3.1
		l140.7,391.8c1.2,4.1,0,6.2-3.7,6.2H566c-2.9,0.3-5.5-1.5-6.2-4.3L528.4,641.8z M407,576h104.7c-2.5-8.2-53-158-55.5-167.1h-0.6
		c-3.5,16.7-7.8,33.2-13,49.5c-5.8,18.6-11.6,37.5-17.6,56.9C419,534.6,412.8,559.5,407,576L407,576z"/>
	<path id="_31" class="st2" d="M733.7,406.2c-12.8,0.5-25.1-4.4-34-13.6c-8.8-9.6-13.5-22.2-13-35.2c-0.5-12.9,4.6-25.4,13.9-34.3
		c9.2-8.8,21.6-13.6,34.3-13.3c13-0.7,25.7,4.1,34.9,13.3c8.6,9.3,13.2,21.6,12.7,34.3c0.5,13.1-4.3,25.8-13.3,35.2
		C759.8,401.9,746.9,406.8,733.7,406.2z M693.7,736.6V453.9c0-3.7,1.6-5.6,4.9-5.6h70.2c3.3,0,4.9,1.9,4.9,5.6v282.7
		c0,4.1-1.6,6.2-4.9,6.2h-69.6C695.5,742.8,693.7,740.7,693.7,736.6z"/>
</g>
</svg>
