<?xml version="1.0" encoding="utf-8"?>
<!-- Generator: Adobe Illustrator 27.2.0, SVG Export Plug-In . SVG Version: 6.00 Build 0)  -->
<svg version="1.1" id="Capa_1" xmlns="http://www.w3.org/2000/svg" xmlns:xlink="http://www.w3.org/1999/xlink" x="0px" y="0px"
	 viewBox="0 0 1080 1080" style="enable-background:new 0 0 1080 1080;" xml:space="preserve">
<style type="text/css">
	.st0{fill:#FFFFFF;}
	.st1{fill:none;stroke:#F79500;stroke-width:13.2056;stroke-miterlimit:10;}
	.st2{fill:#F79500;}
	.st3{fill:#2FA3F7;}
	.st4{fill:#9C9CFF;}
	.st5{fill:#FF3366;}
	.st6{fill:#FF61FB;}
	.st7{fill:#FF60FA;}
	.st8{fill:#9A9AFF;}
</style>
<g id="_16_00000043453616483291520600000001150676717706237589_">
	<path class="st5" d="M855.3,1005.1H243.7c-80.1,0-145.3-65.2-145.3-145.3V248.2c0-80.1,65.2-145.3,145.3-145.3h611.6
		c80.1,0,145.3,65.2,145.3,145.3v611.6C1000.6,940,935.4,1005.1,855.3,1005.1z M243.7,115.5C170.5,115.5,111,175,111,248.2v611.6
		c0,73.2,59.5,132.7,132.7,132.7h611.6c73.2,0,132.7-59.5,132.7-132.7V248.2c0-73.2-59.5-132.7-132.7-132.7H243.7z"/>
</g>
<g id="InDesign" transform="translate(2511 308)">
	<g>
		<path id="_34_00000101084454373232121000000007670487164872722842_" class="st5" d="M-2092,64.1v368.6c0,3.9-1.8,5.9-5.3,5.9
			h-67.3c-3.2,0-4.7-2-4.7-5.9V64.1c0-3.1,1.8-4.7,5.3-4.7h67.3c2.3-0.3,4.4,1.3,4.7,3.6C-2092,63.3-2092,63.7-2092,64.1L-2092,64.1
			z"/>
		<path id="_35_00000067933588201517109780000010224942086274287794_" class="st5" d="M-1873.6,446.5c-27.1,0.4-53.9-5.2-78.5-16.4
			c-22.9-10.6-42.1-27.9-55-49.7c-14.2-25.4-21.1-54.2-20-83.3c-0.2-27,6.7-53.6,20-77.1c13.7-23.9,33.9-43.5,58.2-56.5
			c28.5-14.8,60.3-22.1,92.3-21.1c2,0,4.5,0.1,7.6,0.3c3.1,0.2,10,0.5,14.3,0.9V32.3c0-2.7,1.2-4.1,3.5-4.1h68.2
			c1.7-0.2,3.3,1,3.5,2.7c0,0.3,0,0.6,0,0.9v343.1c0,6.7,0.3,13.9,0.9,21.8c0.6,7.8,1.1,14.9,1.5,21.2c0.2,2.5-1.3,4.8-3.5,5.9
			c-18.2,7.9-37.2,13.9-56.6,17.6C-1835.8,444.7-1854.7,446.4-1873.6,446.5z M-1834.6,373.6V213c-4.2-0.8-8.5-1.4-12.9-1.8
			c-4-0.4-8-0.6-12.1-0.6c-14.3-0.1-28.4,3.1-41.2,9.4c-28,13.4-45.1,42.5-42.9,73.5c-0.3,12.8,1.8,25.6,6.2,37.6
			c3.6,9.7,9.2,18.5,16.5,25.9c7,6.7,15.4,11.8,24.7,14.7c9.8,3.2,20,4.8,30.3,4.7c5.5,0,10.6-0.2,15.3-0.6
			C-1845.3,375.6-1839.9,374.8-1834.6,373.6L-1834.6,373.6z"/>
	</g>
</g>
</svg>
