<?xml version="1.0" encoding="utf-8"?>
<!-- Generator: Adobe Illustrator 27.2.0, SVG Export Plug-In . SVG Version: 6.00 Build 0)  -->
<svg version="1.1" id="Capa_1" xmlns="http://www.w3.org/2000/svg" xmlns:xlink="http://www.w3.org/1999/xlink" x="0px" y="0px"
	 viewBox="0 0 1080 1080" style="enable-background:new 0 0 1080 1080;" xml:space="preserve">
<style type="text/css">
	.st0{fill:#FFFFFF;}
	.st1{fill:none;stroke:#F79500;stroke-width:13.2056;stroke-miterlimit:10;}
	.st2{fill:#F79500;}
	.st3{fill:#2FA3F7;}
	.st4{fill:#9C9CFF;}
	.st5{fill:#FF3366;}
	.st6{fill:#FF61FB;}
	.st7{fill:#FF60FA;}
	.st8{fill:#9A9AFF;}
</style>
<g id="_16_00000134241682465884187880000002320999490795568818_">
	<path class="st4" d="M875.5,1013H234.2c-84,0-152.3-68.3-152.3-152.3V219.3c0-84,68.3-152.3,152.3-152.3h641.3
		c84,0,152.3,68.3,152.3,152.3v641.3C1027.8,944.7,959.5,1013,875.5,1013z M234.2,80.1C157.4,80.1,95,142.6,95,219.3v641.3
		c0,76.7,62.4,139.2,139.2,139.2h641.3c76.7,0,139.2-62.4,139.2-139.2V219.3c0-76.7-62.4-139.2-139.2-139.2H234.2z"/>
</g>
<g>
	<g>
		<path class="st4" d="M305.4,754.1V355.5c0-2.7,1.2-4.3,3.9-4.3c6.6,0,12.8,0,21.7-0.4c9.3-0.4,19-0.4,29.4-0.8
			c10.5-0.4,21.7-0.4,33.7-0.8s23.6-0.4,35.3-0.4c31.8,0,58.1,3.9,79.8,12c19.4,6.6,37.2,17.4,51.9,31.8
			c12.4,12.4,22.1,27.5,28.3,44.2c5.8,16.3,8.9,32.9,8.9,50.4c0,33.3-7.7,60.8-23.2,82.5c-15.5,21.7-37.2,38-62.4,47.3
			c-26.3,9.7-55.4,13.2-87.2,13.2c-9.3,0-15.5,0-19.4-0.4s-9.3-0.4-16.7-0.4v124.4c0.4,2.7-1.5,5-4.3,5.4H310
			C306.9,759.2,305.4,757.6,305.4,754.1L305.4,754.1z M389.9,426v130.2c5.4,0.4,10.5,0.8,15.1,0.8h20.5c15.1,0,30.2-2.3,44.6-7
			c12.4-3.5,23.2-10.8,31.8-20.5c8.1-9.7,12-22.9,12-39.9c0.4-12-2.7-24-8.9-34.5c-6.6-10.1-15.9-17.8-27.1-22.1
			c-14.3-5.8-29.8-8.1-45.7-7.7c-10.1,0-19,0-26.3,0.4C398,425.2,392.6,425.6,389.9,426L389.9,426z"/>
		<path class="st4" d="M652.5,448.5h67.8c3.9,0,7,2.7,8.1,6.2c1.2,3.1,1.9,6.2,2.3,9.7c0.8,3.9,1.5,8.1,1.9,12
			c0.4,4.3,0.8,8.9,0.8,13.9c11.6-13.6,25.6-24.8,41.5-33.3c17.8-10.1,38.4-15.1,58.9-15.1c2.7-0.4,5,1.5,5.4,4.3v77.1
			c0,3.1-1.9,4.3-6.2,4.3c-13.9-0.4-28.3,0.8-41.8,3.9c-11.2,2.3-22.1,5.8-32.5,10.5c-7.4,3.5-14.3,8.1-19.8,14.3v197.6
			c0,3.9-1.5,5.4-5,5.4h-76.3c-3.1,0.4-5.8-1.5-6.2-4.6V538.3c0-9.3,0-19-0.4-29.1c-0.4-10.1-0.4-20.1-0.8-30.2
			c0-8.9-0.8-17.4-1.5-26.3c-0.4-1.9,0.8-3.9,2.7-4.3C651.4,448.1,652.2,448.1,652.5,448.5L652.5,448.5z"/>
	</g>
</g>
</svg>
