<?xml version="1.0" encoding="utf-8"?>
<!-- Generator: Adobe Illustrator 27.2.0, SVG Export Plug-In . SVG Version: 6.00 Build 0)  -->
<svg version="1.1" id="Capa_1" xmlns="http://www.w3.org/2000/svg" xmlns:xlink="http://www.w3.org/1999/xlink" x="0px" y="0px"
	 viewBox="0 0 1080 1080" style="enable-background:new 0 0 1080 1080;" xml:space="preserve">
<style type="text/css">
	.st0{fill:#FFFFFF;}
	.st1{fill:none;stroke:#F79500;stroke-width:13.2056;stroke-miterlimit:10;}
	.st2{fill:#F79500;}
	.st3{fill:#2FA3F7;}
	.st4{fill:#9C9CFF;}
	.st5{fill:#FF3366;}
	.st6{fill:#FF61FB;}
	.st7{fill:#FF60FA;}
	.st8{fill:#9A9AFF;}
</style>
<g id="_16_00000044856587121580057290000011975456358023643063_">
	<path class="st3" d="M847.8,994H232.2C151.6,994,86,928.4,86,847.8V232.2C86,151.6,151.6,86,232.2,86h615.5
		C928.4,86,994,151.6,994,232.2v615.5C994,928.4,928.4,994,847.8,994z M232.2,98.7c-73.7,0-133.6,59.9-133.6,133.6v615.5
		c0,73.7,59.9,133.6,133.6,133.6h615.5c73.7,0,133.6-59.9,133.6-133.6V232.2c0-73.7-59.9-133.6-133.6-133.6H232.2z"/>
</g>
<g id="Outlined_Mnemonics_Logos">
	<g>
		<g id="Ps_00000127746823863372365950000000701248534916286859_">
			<path class="st3" d="M275.7,742.4V363.9c0-2.6,1.1-4,3.7-4c6.3,0,12.1,0,20.6-0.4c8.8-0.4,18-0.4,28-0.7c9.9-0.4,20.6-0.4,32-0.7
				c11.4-0.4,22.4-0.4,33.5-0.4c30.2,0,55.2,3.7,75.8,11.4c18.4,6.3,35.3,16.6,49.3,30.2c11.8,11.8,21,26.1,26.8,41.9
				c5.5,15.4,8.5,31.3,8.5,47.8c0,31.6-7.4,57.7-22.1,78.3c-14.7,20.6-35.3,36-59.2,44.9c-25,9.2-52.6,12.5-82.8,12.5
				c-8.8,0-14.7,0-18.4-0.4c-3.7-0.4-8.8-0.4-15.8-0.4V742c0.4,2.6-1.5,4.8-4,5.1c-0.4,0-0.7,0-1.5,0h-69.9
				C277.2,747.1,275.7,745.7,275.7,742.4z M355.9,430.8v123.6c5.1,0.4,9.9,0.7,14.3,0.7h19.5c14.3,0,28.7-2.2,42.3-6.6
				c11.8-3.3,22.1-10.3,30.2-19.5c7.7-9.2,11.4-21.7,11.4-37.9c0.4-11.4-2.6-22.8-8.5-32.7c-6.3-9.6-15.1-16.9-25.7-21
				c-13.6-5.5-28.3-7.7-43.4-7.4c-9.6,0-18,0-25,0.4C363.6,430.1,358.5,430.5,355.9,430.8L355.9,430.8z"/>
			<path class="st3" d="M783.2,532c-11-5.9-22.8-9.9-35.3-12.5c-13.6-2.9-27.2-4.8-41.2-4.8c-7.4-0.4-15.1,0.7-22.1,2.6
				c-4.8,1.1-8.8,3.7-11.4,7.4c-1.8,2.9-2.9,6.6-2.9,9.9c0,3.3,1.5,6.6,3.7,9.6c3.3,4,7.7,7.4,12.5,9.9c8.5,4.4,17.3,8.5,26.1,12.1
				c19.9,6.6,39,15.8,56.6,26.8c12.1,7.7,22.1,18,29.1,30.5c5.9,11.8,8.8,24.6,8.5,37.9c0.4,17.3-4.8,34.6-14.3,48.9
				c-10.3,14.7-24.6,26.1-41.2,32.7c-18,7.7-40.1,11.8-66.6,11.8c-16.9,0-33.5-1.5-50-4.8c-12.9-2.2-25.7-6.3-37.5-11.8
				c-2.6-1.5-4.4-4-4-7v-64c0-1.1,0.4-2.6,1.5-3.3c1.1-0.7,2.2-0.4,3.3,0.4c14.3,8.5,29.4,14.3,45.6,18c14,3.7,28.7,5.5,43.4,5.5
				c14,0,23.9-1.8,30.5-5.1c5.9-2.6,9.9-8.8,9.9-15.4c0-5.1-2.9-9.9-8.8-14.7c-5.9-4.8-18-10.3-36-17.3c-18.8-6.6-36-15.4-52.2-26.5
				c-11.4-8.1-21-18.8-28-31.3c-5.9-11.8-8.8-24.6-8.5-37.5c0-15.8,4.4-30.9,12.5-44.5c9.2-14.7,22.8-26.5,38.6-33.8
				c17.3-8.8,39-12.9,65.1-12.9c15.1,0,30.5,1.1,45.6,3.3c11,1.5,21.7,4.4,31.6,8.5c1.5,0.4,2.9,1.8,3.7,3.3
				c0.4,1.5,0.7,2.9,0.7,4.4v59.9c0,1.5-0.7,2.9-1.8,3.7C786.6,532.7,784.7,532.7,783.2,532z"/>
		</g>
	</g>
</g>
</svg>
