<?xml version="1.0" encoding="utf-8"?>
<!-- Generator: Adobe Illustrator 27.2.0, SVG Export Plug-In . SVG Version: 6.00 Build 0)  -->
<svg version="1.1" id="Capa_1" xmlns="http://www.w3.org/2000/svg" xmlns:xlink="http://www.w3.org/1999/xlink" x="0px" y="0px"
	 viewBox="0 0 1080 1080" style="enable-background:new 0 0 1080 1080;" xml:space="preserve">
<style type="text/css">
	.st0{fill:#FFFFFF;}
	.st1{fill:none;stroke:#F79500;stroke-width:13.2056;stroke-miterlimit:10;}
	.st2{fill:#F79500;}
	.st3{fill:#2FA3F7;}
	.st4{fill:#9C9CFF;}
	.st5{fill:#FF3366;}
	.st6{fill:#FF61FB;}
	.st7{fill:#FF60FA;}
	.st8{fill:#9A9AFF;}
</style>
<g id="_16_00000006707322344460119340000010395004878272471996_">
	<path class="st6" d="M858.1,1004.6H251.2c-79.5,0-144.2-64.7-144.2-144.2V253.5c0-79.5,64.7-144.2,144.2-144.2h606.9
		c79.5,0,144.2,64.7,144.2,144.2v606.9C1002.3,939.9,937.6,1004.6,858.1,1004.6z M251.2,121.8c-72.6,0-131.7,59.1-131.7,131.7v606.9
		c0,72.6,59.1,131.7,131.7,131.7h606.9c72.6,0,131.7-59.1,131.7-131.7V253.5c0-72.6-59.1-131.7-131.7-131.7H251.2z"/>
</g>
<g id="Outlined_Mnemonics_Logos_00000060006135506263853160000010556805119746419596_">
	<g>
		<g id="Xd_00000022540458347118489180000002205788821732803751_">
			<path class="st7" d="M576.9,385.2L468.8,563.6l115.3,189.2c0.7,1.4,1.1,2.9,0.7,4.3c-0.4,1.4-1.8,0.4-4,0.7h-82.5
				c-5.8,0-9.7-0.4-12.3-4c-7.6-15.1-15.5-29.9-23.1-45c-7.6-14.8-15.9-29.9-24.5-45.4c-8.6-15.5-17.3-31-25.9-46.8h-0.7
				c-7.6,15.5-15.9,31-24.1,46.5c-8.3,15.5-16.6,31-24.5,46.1c-8.3,15.1-16.6,30.6-24.9,45.4c-1.4,3.6-4.3,4-8.3,4h-79.3
				c-1.4,0-2.5,0.7-2.5-1.1c-0.4-1.4,0-2.9,0.7-4l112.1-183.8L251.9,384.9c-1.1-1.4-1.4-2.9-0.7-3.6c0.7-1.1,2.2-1.4,3.6-1.4h81.8
				c1.8,0,3.6,0.4,5,0.7c1.4,0.7,2.5,1.8,3.6,3.2c6.8,15.5,14.8,31,23.1,46.5c8.6,15.5,16.9,30.6,25.9,45.8
				c8.6,15.1,16.6,30.3,24.1,45.8h0.7c7.6-15.9,15.5-31.4,23.4-46.5s16.2-30.3,24.5-45.4c8.3-15.1,16.2-30.6,24.1-45.4
				c0.4-1.4,1.1-2.9,2.2-3.6c1.4-0.7,2.9-1.1,4.7-0.7h76c1.8-0.4,3.6,0.7,4,2.5C578.4,383.1,577.6,384.5,576.9,385.2L576.9,385.2z"
				/>
			<path class="st7" d="M743.4,765.4c-26.7,0.4-53.3-5-77.5-16.2c-22.7-10.5-41.4-27.7-54.4-49c-13.3-22-19.8-49.4-19.8-82.2
				c-0.4-26.7,6.5-53,19.8-76c13.7-23.4,33.5-42.9,57.3-55.9c25.2-14.1,55.5-20.9,91.2-20.9c1.8,0,4.3,0,7.6,0.4
				c3.2,0.4,6.8,0.4,11.2,0.7V352.4c0-2.5,1.1-4,3.6-4h73.2c1.8-0.4,3.2,1.1,3.6,2.5c0,0.4,0,0.7,0,0.7v343.1
				c0,6.5,0.4,13.7,0.7,21.6c0.7,7.6,1.1,14.8,1.4,20.9c0,2.5-1.1,4.7-3.6,5.8c-18.7,7.9-38.6,13.7-58.7,17.3
				C780.5,763.6,762.2,765.4,743.4,765.4z M778.7,693.4V534.8c-3.2-0.7-6.5-1.4-9.7-1.8c-4-0.4-7.9-0.7-11.9-0.7
				c-14.1,0-28.1,2.9-40.7,9.4c-12.3,6.1-22.7,15.1-30.6,26.7c-7.9,11.5-11.9,27-11.9,45.8c-0.4,12.6,1.8,25.2,6.1,37.1
				c3.6,9.7,9,18.4,16.2,25.6c6.8,6.5,15.1,11.5,24.5,14.4c9.7,3.2,19.8,4.7,29.9,4.7c5.4,0,10.5-0.4,15.1-0.7
				C770.4,695.5,774.4,694.8,778.7,693.4z"/>
		</g>
	</g>
</g>
</svg>
