<?xml version="1.0" encoding="utf-8"?>
<!-- Generator: Adobe Illustrator 27.2.0, SVG Export Plug-In . SVG Version: 6.00 Build 0)  -->
<svg version="1.1" id="Capa_1" xmlns="http://www.w3.org/2000/svg" xmlns:xlink="http://www.w3.org/1999/xlink" x="0px" y="0px"
	 viewBox="0 0 1080 1080" style="enable-background:new 0 0 1080 1080;" xml:space="preserve">
<style type="text/css">
	.st0{fill:#FFFFFF;}
	.st1{fill:none;stroke:#F79500;stroke-width:13.2056;stroke-miterlimit:10;}
	.st2{fill:#F79500;}
	.st3{fill:none;stroke:#2FA3F7;stroke-width:12.6337;stroke-miterlimit:10;}
	.st4{fill:#2FA3F7;}
	.st5{fill:none;stroke:#9C9CFF;stroke-width:13.1638;stroke-miterlimit:10;}
	.st6{fill:#9C9CFF;}
	.st7{fill:none;stroke:#FF3366;stroke-width:12.554;stroke-miterlimit:10;}
	.st8{fill:#FF3366;}
	.st9{fill:none;stroke:#FF61FB;stroke-width:12.457;stroke-miterlimit:10;}
	.st10{fill:#FF60FA;}
	.st11{fill:none;stroke:#9A9AFF;stroke-width:12.6902;stroke-miterlimit:10;}
	.st12{fill:#9A9AFF;}
</style>
<g>
	<g>
		<g>
			<path class="st0" d="M452.9,548.9c0-1.3,0-2.6,0-3.9c0-16,0-32,0-47.9c0-7,2.7-9.7,9.6-9.8c4.5,0,9-0.1,13.5,0
				c5.5,0.1,8.2,3,8.2,8.5c0,33.6,0,67.2,0,100.8c0,5.8-2.7,8.5-8.5,8.6c-5.2,0.1-10.4-0.1-15.6,0c-3.6,0.1-6.1-1.4-8.3-4.2
				c-13.1-17.3-26.3-34.6-39.4-51.8c-1.1-1.5-2.3-3-4.5-4.4c0,1.4,0,2.7,0,4.1c0,15.4,0,30.9,0,46.3c0,7.5-2.5,10-10.1,10
				c-3.8,0-7.6,0-11.5,0c-7.3,0-9.9-2.5-9.9-9.8c0-19.3,0-38.5,0-57.8c0-13.1,0-26.2,0-39.3c0-8.9,2.2-11,11.2-11
				c3.4,0,6.8,0.2,10.2,0c4.8-0.3,8.2,1.6,11.1,5.5c13.5,18,27.2,35.9,40.9,53.8c0.7,0.9,1.3,1.7,2,2.5
				C452.3,549,452.6,548.9,452.9,548.9z"/>
		</g>
		<g>
			<g>
				<path class="st0" d="M238.5,545.8c0.4-32.7,27.3-59.1,59.7-58.5c33,0.5,59.1,27.3,58.6,60.1c-0.5,32.3-27.5,58.6-59.8,58.2
					C264.4,605.2,238.1,578.4,238.5,545.8z M297.6,578.7c17.8,0,32.3-14.3,32.4-32.2c0.1-17.7-14.5-32.4-32.2-32.5
					c-17.7,0-32.4,14.5-32.4,32.3C265.3,564.1,279.8,578.6,297.6,578.7z"/>
			</g>
		</g>
		<g>
			<path class="st0" d="M540.8,577.5c1.7,0,3.2,0,4.6,0c15.6,0,31.1-0.1,46.7,0.1c2.4,0,5.5,1.1,7,2.8c2.3,2.5,0.3,5.3-1.3,7.8
				c-2.9,4.3-5.8,8.6-8.6,13c-1.7,2.7-3.8,3.9-7.1,3.9c-21.4,0-42.9,0.1-64.3,0.1c-7.8,0-8.7-1.1-8.7-8.7c0-33.7,0-67.5,0-101.2
				c0-7,1-8,8.1-8c20.7,0,41.5,0.1,62.2-0.1c5.1,0,8.6,1.7,11.1,6.1c2.1,3.7,4.8,7,6.7,10.8c1,2.1,1.7,5.2,0.8,7.1
				c-0.8,1.6-3.9,2.8-6.1,2.8c-15.6,0.2-31.1,0.1-46.7,0.1c-1.5,0-2.9,0-4.6,0c0,6.4,0,12.4,0,18.7c1.8,0.1,3.4,0.2,4.9,0.2
				c9.8,0,19.7,0.1,29.5,0c3.7-0.1,5.1,1.3,4.9,5.1c-0.2,5.6-0.2,11.2,0,16.8c0.1,3.6-1.3,4.8-4.8,4.8c-10-0.1-19.9,0-29.9,0
				c-1.5,0-2.9,0-4.6,0C540.8,565.7,540.8,571.3,540.8,577.5z"/>
		</g>
		<g>
			<path class="st0" d="M917.7,606.6c-11.6-0.1-22.8-2.6-33.6-6.6c-2.6-1-5.1-3.6-6.6-6.1c-2.2-3.7-3.6-8-5.3-12
				c-1.4-3.2-1.6-6.4,0.9-9.2c2.5-2.8,5.5-2.8,9-1.9c11.2,2.8,22.4,5.8,33.8,7.7c4.9,0.8,10.3-0.4,15.3-1.4c3.5-0.7,6.6-2.9,6.6-7.3
				c0-4.3-3.1-5.9-6.5-6.8c-7.8-2-15.7-3.5-23.4-5.7c-5.8-1.6-11.5-3.6-17-5.8c-20.7-8.5-22.4-35.1-10.7-48.7
				c8.6-10.1,19.9-14.4,32.6-16c14.2-1.8,28,0.2,41.6,4.6c5.7,1.9,7.3,4.9,5.6,10.6c-1.1,3.5-2.1,7.1-3.4,10.5
				c-1.6,4.5-4.7,6.2-9.3,4.9c-10.1-2.7-20.2-4.7-30.7-3.5c-3.1,0.3-6.3,1.1-8.9,2.6c-1.8,1.1-3.8,3.8-3.7,5.7c0.2,2,2.3,5,4.2,5.6
				c7,2.3,14.3,3.6,21.3,5.6c7.4,2.2,14.9,4.4,22,7.4c20,8.6,20.7,34.4,11.3,46.8c-8.5,11.2-20.3,16.1-33.7,18
				C925.4,606.1,921.5,606.3,917.7,606.6z"/>
		</g>
		<g>
			<g>
				<path class="st0" d="M856,604.8c-2.9,0-5.7-0.2-8.6,0c-4.7,0.4-8.1-1.5-9.6-5.9c-2-5.9-5.6-7.7-11.9-7.6
					c-14.3,0.3-28.6-0.2-43-0.5c-2.5-0.1-3.9,0.6-5,3c-2.7,5.7-5.7,5.9-9.6,1c-3.9-4.9-7.8-9.9-11.7-14.8c-2.6-3.2-3-6.6-1.2-10.3
					c11.8-24.7,23.6-49.5,35.5-74.2c2.3-4.8,5.9-8.1,11.7-8.2c6.3-0.1,11,2.3,14,8.1c17.9,34,36,68,54,102c2.5,4.8,0.7,7.6-4.8,7.6
					c-3.3,0-6.5,0-9.8,0C856,605,856,604.9,856,604.8z M805.8,569.9c0,0.1,0,0.2,0,0.3c3.7,0,7.4,0.1,11.1,0
					c3.3-0.1,4.4-2.1,2.9-4.9c-3.7-7.3-7.6-14.5-11.5-21.7c-1.9-3.5-4.5-3.5-6.3,0.2c-3.5,7-6.8,14-10.1,21.1
					c-1.5,3.2-0.4,5,3.2,5.2C798.7,570.1,802.3,569.9,805.8,569.9z"/>
			</g>
		</g>
		<g>
			<path class="st0" d="M203.2,523.3c-6.1,0.8-11.2-1.1-16.4-4.4c-14.3-9.1-33.1-4.8-42.8,9c-9.8,14-7,33,6.3,43.8
				c13.2,10.6,32.2,9.3,43.7-3.4c3.4-3.8,7.1-5.7,12.2-5.3c2.9,0.2,5.7,0,8.6,0c8.2,0.1,11.3,5.4,7.1,12.5
				c-9.9,16.7-24.6,26.5-43.7,29.3c-34,5-61.3-15.8-66.2-49.3c-5.8-40,23.3-64.7,51.1-67.7c21.2-2.4,38.9,4.8,52.9,21
				c2.5,2.9,3.8,6,2.1,9.8c-1.7,3.7-4.9,4.9-8.7,4.8C207.3,523.2,205.3,523.3,203.2,523.3z"/>
		</g>
		<g>
			<path class="st0" d="M629.5,487.8c5.2,0,10.4-0.2,15.5,0.1c1.9,0.1,4.3,1.2,5.4,2.6c8.6,11.9,17.3,23.9,25.3,36.2
				c7.9,12.2,8.2,25.3,0.7,37.6c-8,13-17.1,25.3-25.9,37.8c-0.9,1.3-3.2,2.2-4.8,2.3c-10.2,0.2-20.5,0.2-30.7,0
				c-1.4,0-3.8-0.8-4.1-1.7c-0.4-1.3,0.3-3.5,1.2-4.7c11.3-14.5,22.8-28.9,34.2-43.4c4.9-6.2,4.9-9.5,0.1-15.6
				c-11.4-14.5-22.8-28.9-34.3-43.4c-0.5-0.6-1.2-1.2-1.5-1.9c-0.5-1.3-1.3-3-0.8-4.1c0.4-1,2.3-1.7,3.6-1.8
				C618.8,487.7,624.1,487.8,629.5,487.8z"/>
		</g>
		<g>
			<path class="st0" d="M732.3,487.3c5.2,0,10.4-0.2,15.5,0.1c1.7,0.1,4.4,0.8,4.8,1.9c0.5,1.5-0.3,3.9-1.4,5.3
				c-11.7,15.1-23.6,30-35.5,45c-4.5,5.7-4.5,8.8,0.1,14.5c11.4,14.4,22.9,28.8,34.3,43.4c1.1,1.4,2.4,4.3,1.7,5.3
				c-0.9,1.4-3.5,2.2-5.4,2.2c-8.9,0.2-17.7,0-26.6,0.1c-4.8,0.1-8.4-1.7-11.1-5.7c-6.7-9.8-13.4-19.6-20.3-29.3
				c-2.4-3.4-2.7-6.6-1.1-10.4c3.8-9.1,3.7-18.4-0.1-27.5c-1.3-3.3-1.3-6.3,0.8-9.3c7.5-10.7,15-21.5,22.4-32.3
				c1.7-2.5,3.7-3.7,6.8-3.5C722.2,487.4,727.2,487.3,732.3,487.3z"/>
		</g>
	</g>
</g>
</svg>
