<?xml version="1.0" encoding="utf-8"?>
<!-- Generator: Adobe Illustrator 27.2.0, SVG Export Plug-In . SVG Version: 6.00 Build 0)  -->
<svg version="1.1" id="Capa_1" xmlns="http://www.w3.org/2000/svg" xmlns:xlink="http://www.w3.org/1999/xlink" x="0px" y="0px"
	 viewBox="0 0 1080 246.5" style="enable-background:new 0 0 1080 246.5;" xml:space="preserve">
<style type="text/css">
	.st0{fill:#FFFFFF;}
	.st1{fill:none;stroke:#F79500;stroke-width:13.2056;stroke-miterlimit:10;}
	.st2{fill:#F79500;}
	.st3{fill:#2FA3F7;}
	.st4{fill:#9C9CFF;}
	.st5{fill:#FF3366;}
	.st6{fill:#FF61FB;}
	.st7{fill:#FF60FA;}
	.st8{fill:#9A9AFF;}
</style>
<g>
	<g>
		<path class="st0" d="M441.6,139.6C441.6,139.6,441.6,139.6,441.6,139.6c0-21.4,0-42.8,0-64.2c0-4.6-0.1-4.8-4.9-4.8
			c-7.7,0-15.4,0-23.1,0c-4.1,0-4.1,0-4.1,4.1c0,25.2,0,50.5,0,75.7c0,1.1-0.6,2.1-0.9,3.2c-0.9-0.7-2-1.2-2.6-2
			c-7.9-10.3-15.7-20.7-23.5-31.1c-11.1-14.8-22.1-29.7-33.2-44.6c-1.8-2.5-3.7-5.1-7.1-5.2c-8.1,0-16.1,0.2-24.2,0.2
			c-2.4,0-3.1,1.1-3.1,3.4c0.1,43.4,0,86.7,0,130.1c0,2.8,1,3.5,3.7,3.5c8-0.1,16,0,23.9,0c4.1,0,4.1,0,4.1-4.1
			c0-24.3-0.1-48.7,0-73c0-1.8,0.9-3.6,1.5-5.4c1.3,1.2,2.9,2.3,3.9,3.7c19,25.3,37.9,50.6,56.8,76c1.5,2,3.2,2.9,5.8,2.9
			c7.7-0.1,15.4,0,23.1,0c4,0,4,0,4-3.9C441.6,182.6,441.6,161.1,441.6,139.6z M162,170.5C162,170.5,162,170.5,162,170.5
			c0-12,0-24.1,0.1-36.1c0-2.4-0.6-3.5-3.3-3.5c-20.2,0.1-40.4,0.1-60.6,0c-2.5,0-3.3,0.9-3.2,3.3c0.1,5.3,0,10.6,0,16
			c0,5,0.1,5.1,5.2,5.1c10.2,0,20.3,0,30.5,0c1.8,0,3.4,0.2,3.4,2.6c0.1,6.7,0.3,13.4,0.4,20.1c0.1,2.6-1.2,3.8-3.8,3.7
			c-10.2,0-20.5,0.1-30.7-0.1c-4.2-0.1-8.5-0.7-12.5-1.8c-12.3-3.2-20.5-11.6-25-22.9c-4-10-4.1-20.9-1.1-31.5
			c1.8-6.3,5.2-12.1,9.8-16.7c6.2-6.1,14.1-9.8,22.9-10.6c13.3-1.2,24.9,2.5,34.2,12.4c1.3,1.4,3.7,2.4,5.6,2.5
			c8.3,0.3,16.6,0.1,24.8,0.1c3.4,0,3.6-0.2,2.8-3.6c-4.1-16.7-14.7-28-30.1-34.9c-13.6-6.1-27.9-7.2-42.5-5.5
			C74,71.2,60.7,76.6,49.7,86.7c-19.6,18-25.9,40.8-21.3,66.4c4.8,27.2,21.2,45,47.5,53.7c10.3,3.4,21,3.3,31.6,3.4
			c17,0.3,34.1-0.2,51.1-0.2c2.8,0,3.5-1,3.5-3.6C162,194.4,162,182.5,162,170.5z M468.1,139.3C468.1,139.3,468.1,139.3,468.1,139.3
			c0,20.4,0,40.8,0,61.2c0,7.4,0,7.5,7.6,7.5c31.1-0.1,62.2-0.3,93.4-0.4c2.7,0,3.4-1,3.3-3.5c-0.1-6.9,0-13.8,0-20.7
			c0-3.9,0-3.9-4-3.9c-21.6,0-43.2,0-64.7,0c-3.7,0-4.1-0.4-4.1-4.1c0-6,0-12,0-18c0-4.3,0.1-4.4,4.5-4.4c20.1,0,40.2,0,60.3,0
			c2.4,0,3.3-0.7,3.2-3.2c-0.1-7.1,0-14.2,0-21.3c0-4,0-4-4.1-4c-19.8,0-39.6,0-59.4,0c-4.1,0-4.5-0.4-4.5-4.3c0-5.3,0-10.6,0-16
			c0-4.7,0.3-5,5.1-5c21.3,0,42.6-0.1,63.8,0c2.6,0,3.5-0.8,3.4-3.4c-0.1-6.9,0-13.8,0-20.7c0-4.3-0.1-4.4-4.5-4.4
			c-31.7,0-63.4,0-95.2,0c-4.1,0-4.1,0-4.1,4.1C468.1,96.3,468.1,117.8,468.1,139.3z M285.7,124.7c-1.2-0.1-2.4-0.1-3.5-0.1
			c-20,0-40,0-60,0c-3.5,0-3.9-0.5-3.9-3.9c0-5.4,0-10.8,0-16.3c0-4.6,0.6-5.1,5.1-5.1c20.9,0,41.8,0,62.7,0c0.9,0,1.8,0.2,2.6-0.1
			c0.6-0.2,1.4-0.9,1.4-1.4c0.3-7.6,0.6-15.3,0.8-22.9c0.1-4,0-4.1-4.1-4.1c-31.9,0-63.9,0-95.8,0c-4.2,0-4.2,0-4.2,4.3
			c0,42.9,0,85.8,0,128.6c0,0.7-0.2,1.5,0.1,2c0.3,0.7,1,1.5,1.6,1.6c1.9,0.4,3.9,0.6,5.9,0.6c31.2-0.1,62.5-0.3,93.7-0.4
			c2.3,0,3.1-0.8,3.1-3.1c-0.1-7,0-14,0-21c0-3.9,0-3.9-4-3.9c-21.5,0-43,0-64.5,0c-3.8,0-4.3-0.5-4.3-4.2c0-5.8,0-11.6,0-17.4
			c0-4.6,0.3-4.9,4.9-4.9c19.8,0,39.6,0,59.4,0c2.7,0,4-0.6,3.8-3.6c-0.3-4.5-0.4-9-0.5-13.6C285.7,132.2,285.7,128.6,285.7,124.7z
			 M653,210.3c3.1-0.4,9.2-0.7,15.2-1.8c20.4-4,36.9-16.7,39.3-38c1.8-16.3-3.7-28.4-18.1-36.5c-10-5.6-20.9-7.8-32-10.1
			c-7.3-1.5-14.6-3.2-21.6-5.7c-6.2-2.2-7.4-9.7-2.9-14.7c2.9-3.2,6.8-4.8,10.9-5.5c9.3-1.5,18.5-1,27.5,1.7
			c6.2,1.8,12.1,4.7,18,7.4c2.1,0.9,3,0.8,4.1-1.3c3.4-6.6,6.9-13.1,10.5-19.5c1.3-2.4,0.9-3.7-1.5-5c-22.8-12.1-46.7-16.5-71.9-9.9
			c-20.5,5.4-35.4,20.5-34.1,44.5c0.7,13.2,6.7,23.3,18.5,29.6c11.3,6.1,23.8,8,36.3,9.9c5.9,0.9,12,1.3,17.2,4.7
			c7.3,4.7,7.2,12.3,0.1,17.3c-5.2,3.7-11.2,4.3-17.2,4.4c-14.9,0.1-28.6-4.2-41.1-12c-2.6-1.6-3.9-1.3-5.4,1.2
			c-3.8,6.3-7.7,12.6-11.6,18.9c-2.1,3.4-2.1,3.7,1.3,5.7C611.5,206,630.3,209.9,653,210.3z M898.1,82.3c-7.9-3.1-15.2-6.5-22.7-8.9
			c-17.4-5.5-35.2-6.6-53-2c-15.6,4.1-27.4,13.1-32.2,29.1c-1.3,4.4-0.9,9.3-1.4,13.9c-0.8,7,1.1,13.3,4.8,19.1
			c5,7.6,12.2,12.8,20.8,15.3c9.7,2.8,19.7,4.3,29.6,6.6c5.3,1.2,10.9,2.2,15.8,4.5c7.4,3.4,7.7,12.5,1,17.3
			c-4.5,3.3-9.7,4.4-15,4.5c-15.4,0.4-29.6-3.4-42.8-11.3c-4.1-2.5-4.4-2.4-6.9,1.6c-3.6,5.8-7.2,11.7-10.8,17.6
			c-2.3,3.7-2.3,3.8,1.4,6c24.6,14.1,50.8,18.4,78.2,11.5c19.3-4.9,32.4-16.5,34.6-37.7c1.6-14.4-3.8-27.4-17-34.9
			c-9.4-5.3-19.7-7.7-30.1-10c-7.8-1.7-15.6-3.3-23.2-5.4c-4.6-1.2-7-5-6.7-9.6c0.3-5.1,3.7-7.9,8-9.7c10-4.2,20.4-2.9,30.5-0.5
			c7.2,1.7,13.9,5.3,20.8,8.1c1.4,0.6,2.4,0.7,3.2-0.8C889,98.8,893.3,91.1,898.1,82.3z M1003.4,70.7c-15.3,0-30.5,0.1-45.8-0.1
			c-2.8,0-3.6,0.9-3.5,3.6c0.1,7,0,14,0,21c0,4,0,4,3.9,4c17.7,0,35.5,0,53.2,0c4.3,0,5.1,1.4,3.2,5.3c-3.2,6.4-6.4,12.9-9.6,19.3
			c-7.7,15.2-15.6,30.3-23.3,45.5c-6,11.8-11.8,23.6-17.7,35.4c-1.4,2.7-1,3.3,2,3.3c9.5,0,18.9-0.1,28.4,0.1
			c3.4,0.1,5.3-1.3,6.6-4.2c2.5-5.7,5.2-11.3,7.9-16.8c12.9-26.7,25.9-53.3,38.7-80.1c2-4.1,4.2-8.4,4.9-12.9
			c0.9-6.4,0.6-12.9,0.7-19.4c0.1-3.7-0.2-3.9-3.8-3.9C1033.9,70.7,1018.6,70.7,1003.4,70.7z M761,139.6c0-21.8,0-43.6,0-65.3
			c0-2.6-0.7-3.7-3.5-3.6c-8.2,0.2-16.4,0.1-24.5,0c-2.7,0-3.6,0.8-3.6,3.5c0.1,43.5,0.1,86.9,0,130.4c0,2.5,0.7,3.5,3.4,3.4
			c8.1-0.1,16.2,0,24.2,0c3.9,0,4,0,4-3.9C761,182.6,761,161.1,761,139.6z M238.9,44.3c16.2,0,32.5,0,48.7,0c2.3,0,3.4-0.6,3.3-3.2
			c-0.1-7.2-0.1-14.4,0-21.6c0-2.4-0.8-3.3-3.2-3.3c-32.6,0.1-65.2,0.1-97.8,0c-2.4,0-3.3,0.8-3.3,3.2c0.1,7,0.2,14,0,21
			c-0.1,3,0.8,3.9,3.8,3.9C206.6,44.2,222.7,44.3,238.9,44.3z"/>
		<path class="st0" d="M441.6,139.6c0,21.5,0,43,0,64.4c0,3.9,0,3.9-4,3.9c-7.7,0-15.4-0.1-23.1,0c-2.5,0-4.3-0.9-5.8-2.9
			c-18.9-25.4-37.8-50.7-56.8-76c-1.1-1.4-2.6-2.5-3.9-3.7c-0.5,1.8-1.4,3.6-1.5,5.4c-0.1,24.3,0,48.7,0,73c0,4.1,0,4.1-4.1,4.1
			c-8,0-16-0.1-23.9,0c-2.6,0-3.7-0.6-3.7-3.5c0.1-43.4,0.1-86.7,0-130.1c0-2.4,0.7-3.4,3.1-3.4c8.1,0,16.1-0.2,24.2-0.2
			c3.5,0,5.3,2.7,7.1,5.2c11,14.9,22.1,29.7,33.2,44.6c7.8,10.4,15.6,20.8,23.5,31.1c0.7,0.9,1.7,1.4,2.6,2c0.3-1.1,0.9-2.1,0.9-3.2
			c0-25.2,0-50.5,0-75.7c0-4.1,0-4.1,4.1-4.1c7.7,0,15.4,0,23.1,0c4.8,0,4.9,0.1,4.9,4.8C441.6,96.9,441.6,118.2,441.6,139.6
			C441.6,139.6,441.6,139.6,441.6,139.6z"/>
		<path class="st0" d="M162,170.5c0,11.9-0.1,23.9,0,35.8c0,2.6-0.7,3.6-3.5,3.6c-17,0-34.1,0.5-51.1,0.2c-10.6-0.2-21.3,0-31.6-3.4
			c-26.2-8.7-42.6-26.5-47.5-53.7c-4.5-25.6,1.7-48.4,21.3-66.4c11-10.1,24.3-15.5,39.1-17.2c14.6-1.7,28.9-0.6,42.5,5.5
			c15.4,6.9,26,18.1,30.1,34.9c0.8,3.3,0.6,3.6-2.8,3.6c-8.3,0-16.6,0.2-24.8-0.1c-1.9-0.1-4.3-1.1-5.6-2.5
			c-9.4-10-20.9-13.6-34.2-12.4c-8.9,0.8-16.7,4.4-22.9,10.6c-4.6,4.5-8,10.3-9.8,16.7c-3,10.6-2.9,21.4,1.1,31.5
			c4.5,11.3,12.7,19.7,25,22.9c4.1,1.1,8.3,1.7,12.5,1.8c10.2,0.3,20.5,0.1,30.7,0.1c2.6,0,3.8-1.1,3.8-3.7
			c-0.2-6.7-0.3-13.4-0.4-20.1c0-2.4-1.6-2.6-3.4-2.6c-10.2,0-20.3,0-30.5,0c-5,0-5.2-0.1-5.2-5.1c0-5.3,0.1-10.6,0-16
			c-0.1-2.4,0.7-3.3,3.2-3.3c20.2,0.1,40.4,0.1,60.6,0c2.7,0,3.3,1.1,3.3,3.5C162,146.5,162,158.5,162,170.5
			C162,170.5,162,170.5,162,170.5z"/>
		<path class="st0" d="M468.1,139.3c0-21.5,0-43,0-64.4c0-4.1,0-4.1,4.1-4.1c31.7,0,63.4,0,95.2,0c4.4,0,4.5,0.1,4.5,4.4
			c0,6.9-0.1,13.8,0,20.7c0.1,2.6-0.8,3.4-3.4,3.4c-21.3-0.1-42.6,0-63.8,0c-4.8,0-5.1,0.3-5.1,5c0,5.3,0,10.6,0,16
			c0,3.9,0.5,4.3,4.5,4.3c19.8,0,39.6,0,59.4,0c4.1,0,4.2,0,4.1,4c0,7.1-0.2,14.2,0,21.3c0,2.5-0.8,3.2-3.2,3.2
			c-20.1-0.1-40.2,0-60.3,0c-4.4,0-4.5,0.1-4.5,4.4c0,6,0,12,0,18c0,3.6,0.5,4.1,4.1,4.1c21.6,0,43.2,0,64.7,0c3.9,0,4,0,4,3.9
			c0,6.9-0.1,13.8,0,20.7c0,2.5-0.6,3.5-3.3,3.5c-31.1,0.1-62.2,0.3-93.4,0.4c-7.6,0-7.6-0.1-7.6-7.5
			C468.1,180.1,468.1,159.7,468.1,139.3C468.1,139.3,468.1,139.3,468.1,139.3z"/>
		<path class="st0" d="M285.7,124.7c0,3.9-0.1,7.6,0,11.2c0.1,4.5,0.2,9.1,0.5,13.6c0.2,3-1.1,3.6-3.8,3.6
			c-19.8-0.1-39.6-0.1-59.4,0c-4.6,0-4.8,0.3-4.9,4.9c0,5.8,0,11.6,0,17.4c0,3.7,0.5,4.2,4.3,4.2c21.5,0,43,0,64.5,0c4,0,4,0,4,3.9
			c0,7-0.1,14,0,21c0,2.3-0.7,3.1-3.1,3.1c-31.2,0.1-62.5,0.3-93.7,0.4c-2,0-3.9-0.2-5.9-0.6c-0.6-0.1-1.3-1-1.6-1.6
			c-0.3-0.6-0.1-1.4-0.1-2c0-42.9,0-85.8,0-128.6c0-4.3,0-4.3,4.2-4.3c31.9,0,63.9,0,95.8,0c4.1,0,4.2,0,4.1,4.1
			c-0.2,7.6-0.4,15.3-0.8,22.9c0,0.5-0.8,1.2-1.4,1.4c-0.8,0.2-1.8,0.1-2.6,0.1c-20.9,0-41.8,0-62.7,0c-4.5,0-5.1,0.5-5.1,5.1
			c0,5.4,0,10.8,0,16.3c0,3.5,0.5,3.9,3.9,3.9c20,0,40,0,60,0C283.3,124.5,284.5,124.6,285.7,124.7z"/>
		<path class="st0" d="M653,210.3c-22.7-0.4-41.5-4.3-58.5-14.7c-3.4-2.1-3.4-2.3-1.3-5.7c3.9-6.3,7.8-12.6,11.6-18.9
			c1.5-2.5,2.8-2.8,5.4-1.2c12.6,7.8,26.2,12.1,41.1,12c6-0.1,12-0.7,17.2-4.4c7.1-5,7.2-12.6-0.1-17.3c-5.2-3.4-11.3-3.8-17.2-4.7
			c-12.5-1.9-25-3.8-36.3-9.9c-11.8-6.3-17.7-16.4-18.5-29.6c-1.3-24,13.6-39.1,34.1-44.5c25.2-6.6,49.1-2.1,71.9,9.9
			c2.3,1.2,2.8,2.6,1.5,5c-3.6,6.5-7.1,12.9-10.5,19.5c-1.1,2.1-2,2.3-4.1,1.3c-5.9-2.7-11.8-5.6-18-7.4c-8.9-2.7-18.2-3.2-27.5-1.7
			c-4.1,0.7-8,2.2-10.9,5.5c-4.5,4.9-3.4,12.4,2.9,14.7c7,2.5,14.3,4.1,21.6,5.7c11,2.3,22,4.5,32,10.1
			c14.4,8.1,19.9,20.3,18.1,36.5c-2.4,21.2-19,34-39.3,38C662.2,209.6,656.1,209.9,653,210.3z"/>
		<path class="st0" d="M898.1,82.3c-4.8,8.8-9,16.6-13.2,24.3c-0.8,1.5-1.8,1.4-3.2,0.8c-6.9-2.8-13.6-6.4-20.8-8.1
			c-10-2.4-20.4-3.7-30.5,0.5c-4.3,1.8-7.7,4.6-8,9.7c-0.2,4.6,2.1,8.4,6.7,9.6c7.7,2.1,15.5,3.7,23.2,5.4
			c10.4,2.2,20.7,4.7,30.1,10c13.2,7.5,18.5,20.5,17,34.9c-2.3,21.2-15.4,32.8-34.6,37.7c-27.4,6.9-53.7,2.6-78.2-11.5
			c-3.8-2.2-3.7-2.3-1.4-6c3.6-5.9,7.2-11.8,10.8-17.6c2.5-4,2.8-4.1,6.9-1.6c13.2,8,27.4,11.8,42.8,11.3c5.4-0.2,10.5-1.3,15-4.5
			c6.6-4.8,6.4-13.8-1-17.3c-4.9-2.3-10.4-3.3-15.8-4.5c-9.8-2.3-19.9-3.9-29.6-6.6c-8.6-2.5-15.8-7.6-20.8-15.3
			c-3.7-5.7-5.7-12.1-4.8-19.1c0.5-4.6,0.1-9.6,1.4-13.9c4.9-16,16.7-25,32.2-29.1c17.7-4.7,35.6-3.6,53,2
			C882.9,75.8,890.1,79.1,898.1,82.3z"/>
		<path class="st0" d="M1003.4,70.7c15.3,0,30.5,0,45.8,0c3.6,0,3.9,0.2,3.8,3.9c-0.1,6.5,0.2,13.1-0.7,19.4
			c-0.7,4.4-2.9,8.7-4.9,12.9c-12.8,26.7-25.8,53.4-38.7,80.1c-2.7,5.6-5.4,11.2-7.9,16.8c-1.3,3-3.2,4.3-6.6,4.2
			c-9.5-0.2-18.9-0.1-28.4-0.1c-3,0-3.4-0.6-2-3.3c5.9-11.8,11.7-23.6,17.7-35.4c7.7-15.2,15.5-30.3,23.3-45.5
			c3.3-6.4,6.5-12.8,9.6-19.3c1.9-3.9,1.1-5.3-3.2-5.3c-17.7,0-35.5,0-53.2,0c-3.9,0-3.9,0-3.9-4c0-7,0.1-14,0-21
			c-0.1-2.7,0.7-3.6,3.5-3.6C972.8,70.8,988.1,70.7,1003.4,70.7z"/>
		<path class="st0" d="M761,139.6c0,21.5,0,43,0,64.4c0,3.9,0,3.9-4,3.9c-8.1,0-16.2-0.1-24.2,0c-2.6,0-3.4-0.9-3.4-3.4
			c0.1-43.5,0.1-86.9,0-130.4c0-2.8,0.9-3.6,3.6-3.5c8.2,0.1,16.4,0.2,24.5,0c2.8-0.1,3.5,1,3.5,3.6C761,96.1,761,117.9,761,139.6z"
			/>
		<path class="st0" d="M238.9,44.3c-16.2,0-32.3-0.1-48.5,0.1c-3,0-3.9-0.9-3.8-3.9c0.2-7,0.1-14,0-21c0-2.5,0.9-3.2,3.3-3.2
			c32.6,0.1,65.2,0.1,97.8,0c2.5,0,3.3,0.9,3.2,3.3c-0.1,7.2-0.1,14.4,0,21.6c0,2.5-1,3.2-3.3,3.2C271.4,44.3,255.1,44.3,238.9,44.3
			z"/>
	</g>
</g>
</svg>
