<?xml version="1.0" encoding="utf-8"?>
<!-- Generator: Adobe Illustrator 27.2.0, SVG Export Plug-In . SVG Version: 6.00 Build 0)  -->
<svg version="1.1" id="Capa_1" xmlns="http://www.w3.org/2000/svg" xmlns:xlink="http://www.w3.org/1999/xlink" x="0px" y="0px"
	 viewBox="0 0 1080 1080" style="enable-background:new 0 0 1080 1080;" xml:space="preserve">
<style type="text/css">
	.st0{fill:#FFFFFF;}
	.st1{fill:none;stroke:#F79500;stroke-width:13.2056;stroke-miterlimit:10;}
	.st2{fill:#F79500;}
	.st3{fill:none;stroke:#2FA3F7;stroke-width:12.6337;stroke-miterlimit:10;}
	.st4{fill:#2FA3F7;}
	.st5{fill:none;stroke:#9C9CFF;stroke-width:13.1638;stroke-miterlimit:10;}
	.st6{fill:#9C9CFF;}
	.st7{fill:none;stroke:#FF3366;stroke-width:12.554;stroke-miterlimit:10;}
	.st8{fill:#FF3366;}
	.st9{fill:none;stroke:#FF61FB;stroke-width:12.457;stroke-miterlimit:10;}
	.st10{fill:#FF60FA;}
	.st11{fill:none;stroke:#9A9AFF;stroke-width:12.6902;stroke-miterlimit:10;}
	.st12{fill:#9A9AFF;}
</style>
<g>
	<g>
		<path class="st0" d="M456.6,562.3C456.6,562.3,456.6,562.3,456.6,562.3c0-18.1,0-36.3,0-54.4c0-3.9-0.1-4-4.1-4
			c-6.5,0-13,0-19.5,0c-3.4,0-3.4,0-3.4,3.5c0,21.4,0,42.8,0,64.2c0,0.9-0.5,1.8-0.7,2.7c-0.8-0.6-1.7-1-2.2-1.7
			c-6.7-8.8-13.3-17.6-19.9-26.4c-9.4-12.6-18.7-25.2-28.1-37.8c-1.6-2.1-3.1-4.4-6-4.4c-6.8,0-13.7,0.1-20.5,0.2
			c-2,0-2.6,0.9-2.6,2.9c0,36.8,0,73.5,0,110.3c0,2.4,0.9,3,3.1,2.9c6.8-0.1,13.5,0,20.3,0c3.4,0,3.5,0,3.5-3.5
			c0-20.6-0.1-41.3,0-61.9c0-1.5,0.8-3,1.2-4.6c1.1,1,2.4,1.9,3.3,3.1c16.1,21.4,32.1,42.9,48.1,64.4c1.2,1.7,2.7,2.5,4.9,2.4
			c6.5-0.1,13,0,19.5,0c3.4,0,3.4,0,3.4-3.3C456.6,598.7,456.6,580.5,456.6,562.3z M219.6,588.5
			C219.6,588.5,219.6,588.5,219.6,588.5c0-10.2,0-20.4,0.1-30.6c0-2.1-0.5-3-2.8-3c-17.1,0.1-34.3,0.1-51.4,0
			c-2.1,0-2.8,0.8-2.7,2.8c0.1,4.5,0,9,0,13.5c0,4.2,0.1,4.3,4.4,4.3c8.6,0,17.2,0,25.8,0c1.5,0,2.8,0.1,2.9,2.2
			c0.1,5.7,0.2,11.3,0.4,17c0.1,2.2-1,3.2-3.2,3.2c-8.7,0-17.4,0.1-26.1-0.1c-3.6-0.1-7.2-0.6-10.6-1.5
			c-10.4-2.7-17.4-9.8-21.2-19.4c-3.4-8.5-3.4-17.7-0.9-26.7c1.5-5.4,4.4-10.3,8.3-14.1c5.3-5.2,11.9-8.3,19.4-8.9
			c11.3-1,21.1,2.1,29,10.5c1.1,1.2,3.1,2.1,4.7,2.1c7,0.2,14,0.1,21,0.1c2.9,0,3.1-0.2,2.4-3c-3.5-14.2-12.4-23.7-25.5-29.6
			c-11.5-5.1-23.6-6.1-36-4.6c-12.5,1.5-23.8,6.1-33.1,14.6c-16.6,15.2-21.9,34.6-18.1,56.3c4.1,23,18,38.1,40.2,45.5
			c8.7,2.9,17.8,2.8,26.8,2.9c14.4,0.2,28.9-0.2,43.3-0.2c2.4,0,3-0.9,3-3.1C219.5,608.7,219.6,598.6,219.6,588.5z M479,562
			C479,562,479,562,479,562c0,17.3,0,34.6,0,51.9c0,6.3,0,6.3,6.4,6.3c26.4-0.1,52.8-0.2,79.2-0.3c2.3,0,2.8-0.9,2.8-3
			c-0.1-5.8,0-11.7,0-17.5c0-3.3,0-3.3-3.4-3.3c-18.3,0-36.6,0-54.9,0c-3.1,0-3.5-0.4-3.5-3.5c0-5.1,0-10.2,0-15.3
			c0-3.7,0.1-3.8,3.8-3.8c17,0,34.1,0,51.1,0c2.1,0,2.8-0.6,2.7-2.7c-0.1-6,0-12,0-18c0-3.4,0-3.4-3.5-3.4c-16.8,0-33.6,0-50.4,0
			c-3.4,0-3.8-0.4-3.8-3.7c0-4.5,0-9,0-13.5c0-4,0.3-4.2,4.3-4.2c18,0,36.1-0.1,54.1,0c2.2,0,2.9-0.7,2.9-2.9
			c-0.1-5.8,0-11.7,0-17.5c0-3.7-0.1-3.8-3.8-3.8c-26.9,0-53.8,0-80.7,0c-3.5,0-3.5,0-3.5,3.5C479,525.6,479,543.8,479,562z
			 M324.4,549.6c-1,0-2-0.1-3-0.1c-17,0-33.9,0-50.9,0c-2.9,0-3.3-0.4-3.3-3.3c0-4.6,0-9.2,0-13.8c0-3.9,0.5-4.3,4.3-4.3
			c17.7,0,35.4,0,53.1,0c0.8,0,1.5,0.1,2.2-0.1c0.5-0.1,1.2-0.8,1.2-1.2c0.3-6.5,0.5-13,0.7-19.4c0.1-3.4,0-3.4-3.5-3.4
			c-27.1,0-54.1,0-81.2,0c-3.6,0-3.6,0-3.6,3.6c0,36.4,0,72.7,0,109.1c0,0.6-0.2,1.3,0.1,1.7c0.3,0.6,0.8,1.3,1.4,1.4
			c1.6,0.3,3.3,0.5,5,0.5c26.5-0.1,53-0.3,79.4-0.4c2,0,2.6-0.7,2.6-2.6c-0.1-5.9,0-11.9,0-17.8c0-3.3,0-3.3-3.4-3.3
			c-18.2,0-36.4,0-54.6,0c-3.2,0-3.6-0.4-3.7-3.6c0-4.9,0-9.9,0-14.8c0-3.9,0.2-4.1,4.1-4.1c16.8,0,33.6,0,50.4,0
			c2.3,0,3.4-0.5,3.2-3c-0.3-3.8-0.4-7.7-0.5-11.5C324.4,556,324.4,553,324.4,549.6z M635.8,622.2c2.6-0.3,7.8-0.6,12.9-1.6
			c17.3-3.4,31.3-14.2,33.3-32.2c1.5-13.8-3.2-24.1-15.3-31c-8.4-4.8-17.7-6.6-27.1-8.6c-6.2-1.3-12.4-2.7-18.3-4.8
			c-5.3-1.9-6.2-8.2-2.4-12.4c2.5-2.7,5.7-4.1,9.2-4.6c7.9-1.3,15.7-0.8,23.3,1.4c5.2,1.6,10.2,4,15.2,6.3c1.8,0.8,2.6,0.7,3.5-1.1
			c2.9-5.6,5.9-11.1,8.9-16.5c1.1-2,0.7-3.2-1.3-4.2c-19.3-10.2-39.6-14-61-8.4c-17.4,4.6-30,17.4-28.9,37.7
			c0.6,11.2,5.6,19.7,15.6,25.1c9.6,5.1,20.2,6.8,30.8,8.4c5,0.8,10.2,1.1,14.6,4c6.2,4,6.1,10.4,0.1,14.7
			c-4.4,3.1-9.5,3.7-14.6,3.7c-12.6,0.1-24.2-3.5-34.9-10.2c-2.2-1.4-3.3-1.1-4.6,1c-3.2,5.4-6.5,10.7-9.8,16
			c-1.8,2.9-1.8,3.1,1.1,4.9C600.6,618.6,616.5,621.9,635.8,622.2z M843.5,513.7c-6.7-2.7-12.9-5.5-19.2-7.5
			c-14.8-4.7-29.9-5.6-44.9-1.7c-13.2,3.5-23.2,11.1-27.3,24.7c-1.1,3.7-0.7,7.9-1.2,11.8c-0.7,5.9,0.9,11.3,4.1,16.2
			c4.2,6.5,10.3,10.9,17.6,12.9c8.2,2.3,16.7,3.7,25.1,5.6c4.5,1.1,9.2,1.9,13.4,3.8c6.3,2.9,6.5,10.6,0.9,14.6
			c-3.8,2.8-8.2,3.7-12.7,3.8c-13,0.4-25.1-2.9-36.3-9.6c-3.5-2.1-3.8-2.1-5.9,1.3c-3.1,5-6.1,9.9-9.2,14.9c-1.9,3.2-2,3.3,1.2,5.1
			c20.8,12,43.1,15.6,66.3,9.8c16.4-4.1,27.4-14,29.4-32c1.3-12.2-3.2-23.3-14.4-29.6c-8-4.5-16.7-6.6-25.6-8.5
			c-6.6-1.4-13.2-2.8-19.7-4.6c-3.9-1.1-5.9-4.3-5.7-8.1c0.2-4.3,3.1-6.7,6.7-8.2c8.5-3.6,17.3-2.4,25.8-0.4
			c6.1,1.4,11.8,4.5,17.6,6.9c1.2,0.5,2,0.6,2.7-0.7C835.9,527.7,839.5,521.1,843.5,513.7z M932.8,503.9c-12.9,0-25.9,0.1-38.8,0
			c-2.4,0-3,0.8-3,3c0.1,5.9,0,11.9,0,17.8c0,3.4,0,3.4,3.3,3.4c15,0,30.1,0,45.1,0c3.6,0,4.4,1.2,2.7,4.5
			c-2.7,5.5-5.4,10.9-8.2,16.3c-6.6,12.9-13.2,25.7-19.7,38.6c-5.1,10-10,20-15,30c-1.2,2.3-0.9,2.8,1.7,2.8c8,0,16-0.1,24.1,0.1
			c2.9,0.1,4.5-1.1,5.6-3.6c2.1-4.8,4.4-9.5,6.7-14.3c10.9-22.6,21.9-45.2,32.8-67.9c1.7-3.5,3.6-7.2,4.1-10.9
			c0.8-5.4,0.5-11,0.6-16.5c0.1-3.1-0.2-3.3-3.2-3.3C958.7,503.9,945.7,503.9,932.8,503.9z M727.3,562.3c0-18.5,0-36.9,0-55.4
			c0-2.2-0.6-3.1-3-3.1c-6.9,0.1-13.9,0.1-20.8,0c-2.3,0-3,0.7-3,3c0.1,36.8,0.1,73.7,0,110.5c0,2.2,0.6,2.9,2.9,2.9
			c6.8-0.1,13.7,0,20.5,0c3.3,0,3.4,0,3.4-3.3C727.3,598.7,727.3,580.5,727.3,562.3z M284.7,481.5c13.8,0,27.5,0,41.3,0
			c2,0,2.9-0.5,2.8-2.7c-0.1-6.1-0.1-12.2,0-18.3c0-2-0.6-2.8-2.7-2.8c-27.6,0-55.3,0-82.9,0c-2,0-2.8,0.6-2.8,2.7
			c0.1,5.9,0.1,11.9,0,17.8c-0.1,2.5,0.7,3.3,3.2,3.3C257.4,481.4,271,481.5,284.7,481.5z"/>
		<path class="st0" d="M456.6,562.3c0,18.2,0,36.4,0,54.6c0,3.3,0,3.3-3.4,3.3c-6.5,0-13-0.1-19.5,0c-2.1,0-3.6-0.8-4.9-2.4
			c-16-21.5-32-43-48.1-64.4c-0.9-1.2-2.2-2.1-3.3-3.1c-0.4,1.5-1.2,3-1.2,4.6c-0.1,20.6,0,41.3,0,61.9c0,3.5,0,3.5-3.5,3.5
			c-6.8,0-13.5-0.1-20.3,0c-2.2,0-3.1-0.5-3.1-2.9c0.1-36.8,0.1-73.5,0-110.3c0-2,0.6-2.9,2.6-2.9c6.8,0,13.7-0.2,20.5-0.2
			c2.9,0,4.5,2.3,6,4.4c9.4,12.6,18.7,25.2,28.1,37.8c6.6,8.8,13.3,17.6,19.9,26.4c0.6,0.7,1.5,1.2,2.2,1.7c0.3-0.9,0.7-1.8,0.7-2.7
			c0-21.4,0-42.8,0-64.2c0-3.5,0-3.5,3.4-3.5c6.5,0,13,0,19.5,0c4,0,4.1,0.1,4.1,4C456.6,526.1,456.6,544.2,456.6,562.3
			C456.6,562.3,456.6,562.3,456.6,562.3z"/>
		<path class="st0" d="M219.6,588.5c0,10.1,0,20.2,0,30.3c0,2.2-0.6,3.1-3,3.1c-14.4,0-28.9,0.4-43.3,0.2c-9-0.1-18,0-26.8-2.9
			c-22.2-7.4-36.1-22.5-40.2-45.5c-3.9-21.7,1.5-41,18.1-56.3c9.3-8.5,20.6-13.1,33.1-14.6c12.4-1.5,24.5-0.5,36,4.6
			c13.1,5.8,22,15.4,25.5,29.6c0.7,2.8,0.5,3-2.4,3c-7,0-14,0.1-21-0.1c-1.6-0.1-3.6-0.9-4.7-2.1c-7.9-8.4-17.7-11.5-29-10.5
			c-7.5,0.7-14.1,3.8-19.4,8.9c-3.9,3.8-6.8,8.7-8.3,14.1c-2.5,9-2.5,18.2,0.9,26.7c3.8,9.6,10.8,16.7,21.2,19.4
			c3.4,0.9,7.1,1.4,10.6,1.5c8.7,0.2,17.4,0.1,26.1,0.1c2.2,0,3.3-1,3.2-3.2c-0.1-5.7-0.3-11.3-0.4-17c0-2.1-1.3-2.2-2.9-2.2
			c-8.6,0-17.2,0-25.8,0c-4.3,0-4.4-0.1-4.4-4.3c0-4.5,0.1-9,0-13.5c0-2,0.6-2.8,2.7-2.8c17.1,0.1,34.3,0.1,51.4,0
			c2.3,0,2.8,0.9,2.8,3C219.6,568.1,219.6,578.3,219.6,588.5C219.6,588.5,219.6,588.5,219.6,588.5z"/>
		<path class="st0" d="M479,562c0-18.2,0-36.4,0-54.6c0-3.5,0-3.5,3.5-3.5c26.9,0,53.8,0,80.7,0c3.7,0,3.8,0.1,3.8,3.8
			c0,5.8-0.1,11.7,0,17.5c0,2.2-0.7,2.9-2.9,2.9c-18-0.1-36.1,0-54.1,0c-4,0-4.3,0.3-4.3,4.2c0,4.5,0,9,0,13.5
			c0,3.3,0.4,3.7,3.8,3.7c16.8,0,33.6,0,50.4,0c3.5,0,3.5,0,3.5,3.4c0,6-0.1,12,0,18c0,2.1-0.7,2.7-2.7,2.7c-17-0.1-34.1,0-51.1,0
			c-3.8,0-3.8,0.1-3.8,3.8c0,5.1,0,10.2,0,15.3c0,3.1,0.4,3.5,3.5,3.5c18.3,0,36.6,0,54.9,0c3.3,0,3.4,0,3.4,3.3
			c0,5.8-0.1,11.7,0,17.5c0,2.1-0.5,3-2.8,3c-26.4,0.1-52.8,0.2-79.2,0.3c-6.4,0-6.4-0.1-6.4-6.3C479.1,596.6,479.1,579.3,479,562
			C479,562,479,562,479,562z"/>
		<path class="st0" d="M324.4,549.6c0,3.3-0.1,6.4,0,9.5c0.1,3.8,0.2,7.7,0.5,11.5c0.2,2.5-0.9,3.1-3.2,3c-16.8-0.1-33.6,0-50.4,0
			c-3.9,0-4.1,0.2-4.1,4.1c0,4.9,0,9.9,0,14.8c0,3.2,0.4,3.6,3.7,3.6c18.2,0,36.4,0,54.6,0c3.4,0,3.4,0,3.4,3.3
			c0,5.9-0.1,11.9,0,17.8c0,1.9-0.6,2.6-2.6,2.6c-26.5,0.1-53,0.2-79.4,0.4c-1.7,0-3.3-0.2-5-0.5c-0.5-0.1-1.1-0.8-1.4-1.4
			c-0.2-0.5-0.1-1.1-0.1-1.7c0-36.4,0-72.7,0-109.1c0-3.6,0-3.6,3.6-3.6c27.1,0,54.1,0,81.2,0c3.5,0,3.6,0,3.5,3.4
			c-0.2,6.5-0.4,13-0.7,19.4c0,0.4-0.7,1-1.2,1.2c-0.7,0.2-1.5,0.1-2.2,0.1c-17.7,0-35.4,0-53.1,0c-3.8,0-4.3,0.4-4.3,4.3
			c0,4.6,0,9.2,0,13.8c0,2.9,0.4,3.3,3.3,3.3c17,0,33.9,0,50.9,0C322.4,549.5,323.4,549.6,324.4,549.6z"/>
		<path class="st0" d="M635.8,622.2c-19.2-0.3-35.2-3.6-49.6-12.5c-2.9-1.8-2.9-1.9-1.1-4.9c3.3-5.3,6.6-10.6,9.8-16
			c1.2-2.1,2.4-2.4,4.6-1c10.6,6.6,22.2,10.3,34.9,10.2c5.1,0,10.1-0.6,14.6-3.7c6-4.2,6.1-10.6-0.1-14.7c-4.4-2.9-9.6-3.2-14.6-4
			c-10.6-1.6-21.2-3.2-30.8-8.4c-10-5.4-15-13.9-15.6-25.1c-1.1-20.3,11.5-33.1,28.9-37.7c21.4-5.6,41.7-1.8,61,8.4
			c2,1.1,2.4,2.2,1.3,4.2c-3.1,5.5-6,11-8.9,16.5c-0.9,1.8-1.7,1.9-3.5,1.1c-5-2.3-10-4.7-15.2-6.3c-7.6-2.2-15.4-2.7-23.3-1.4
			c-3.5,0.6-6.7,1.9-9.2,4.6c-3.8,4.2-2.9,10.5,2.4,12.4c5.9,2.1,12.1,3.5,18.3,4.8c9.3,1.9,18.6,3.8,27.1,8.6
			c12.2,6.9,16.9,17.2,15.3,31c-2,18-16.1,28.8-33.3,32.2C643.6,621.7,638.4,621.9,635.8,622.2z"/>
		<path class="st0" d="M843.5,513.7c-4.1,7.5-7.7,14-11.2,20.6c-0.7,1.3-1.5,1.2-2.7,0.7c-5.8-2.4-11.6-5.4-17.6-6.9
			c-8.5-2-17.3-3.2-25.8,0.4c-3.6,1.5-6.5,3.9-6.7,8.2c-0.2,3.9,1.8,7.1,5.7,8.1c6.5,1.8,13.1,3.2,19.7,4.6
			c8.8,1.9,17.6,3.9,25.6,8.5c11.2,6.3,15.7,17.4,14.4,29.6c-1.9,17.9-13,27.8-29.4,32c-23.3,5.9-45.5,2.2-66.3-9.8
			c-3.2-1.8-3.2-1.9-1.2-5.1c3-5,6.1-10,9.2-14.9c2.1-3.4,2.4-3.4,5.9-1.3c11.1,6.8,23.2,10,36.3,9.6c4.6-0.1,8.9-1.1,12.7-3.8
			c5.6-4.1,5.4-11.7-0.9-14.6c-4.2-1.9-8.9-2.8-13.4-3.8c-8.3-1.9-16.9-3.3-25.1-5.6c-7.3-2.1-13.4-6.5-17.6-12.9
			c-3.2-4.9-4.8-10.2-4.1-16.2c0.5-3.9,0-8.1,1.2-11.8c4.1-13.6,14.1-21.2,27.3-24.7c15-4,30.1-3,44.9,1.7
			C830.7,508.2,836.8,511,843.5,513.7z"/>
		<path class="st0" d="M932.8,503.9c12.9,0,25.9,0,38.8,0c3.1,0,3.3,0.2,3.2,3.3c-0.1,5.5,0.2,11.1-0.6,16.5
			c-0.6,3.8-2.4,7.4-4.1,10.9c-10.9,22.7-21.9,45.2-32.8,67.9c-2.3,4.7-4.6,9.5-6.7,14.3c-1.1,2.5-2.7,3.6-5.6,3.6
			c-8-0.2-16,0-24.1-0.1c-2.6,0-2.9-0.5-1.7-2.8c5-10,10-20,15-30c6.5-12.9,13.2-25.7,19.7-38.6c2.8-5.4,5.5-10.9,8.2-16.3
			c1.6-3.3,0.9-4.5-2.7-4.5c-15,0-30.1,0-45.1,0c-3.3,0-3.3,0-3.3-3.4c0-5.9,0.1-11.9,0-17.8c0-2.3,0.6-3,3-3
			C906.9,504,919.9,503.9,932.8,503.9z"/>
		<path class="st0" d="M727.3,562.3c0,18.2,0,36.4,0,54.6c0,3.3,0,3.3-3.4,3.3c-6.8,0-13.7-0.1-20.5,0c-2.2,0-2.9-0.8-2.9-2.9
			c0-36.8,0.1-73.7,0-110.5c0-2.3,0.8-3,3-3c6.9,0.1,13.9,0.1,20.8,0c2.4,0,3,0.9,3,3.1C727.3,525.4,727.3,543.9,727.3,562.3z"/>
		<path class="st0" d="M284.7,481.5c-13.7,0-27.4-0.1-41.1,0.1c-2.6,0-3.3-0.8-3.2-3.3c0.2-5.9,0.1-11.9,0-17.8
			c0-2.1,0.7-2.7,2.8-2.7c27.6,0,55.3,0,82.9,0c2.1,0,2.8,0.8,2.7,2.8c-0.1,6.1-0.1,12.2,0,18.3c0,2.1-0.8,2.7-2.8,2.7
			C312.3,481.5,298.5,481.5,284.7,481.5z"/>
	</g>
</g>
</svg>
