<?xml version="1.0" encoding="utf-8"?>
<!-- Generator: Adobe Illustrator 27.2.0, SVG Export Plug-In . SVG Version: 6.00 Build 0)  -->
<svg version="1.1" id="Capa_1" xmlns="http://www.w3.org/2000/svg" xmlns:xlink="http://www.w3.org/1999/xlink" x="0px" y="0px"
	 viewBox="0 0 1080 1080" style="enable-background:new 0 0 1080 1080;" xml:space="preserve">
<style type="text/css">
	.st0{fill:#FFFFFF;}
	.st1{fill:none;stroke:#F79500;stroke-width:13.2056;stroke-miterlimit:10;}
	.st2{fill:#F79500;}
	.st3{fill:none;stroke:#2FA3F7;stroke-width:12.6337;stroke-miterlimit:10;}
	.st4{fill:#2FA3F7;}
	.st5{fill:none;stroke:#9C9CFF;stroke-width:13.1638;stroke-miterlimit:10;}
	.st6{fill:#9C9CFF;}
	.st7{fill:none;stroke:#FF3366;stroke-width:12.554;stroke-miterlimit:10;}
	.st8{fill:#FF3366;}
	.st9{fill:none;stroke:#FF61FB;stroke-width:12.457;stroke-miterlimit:10;}
	.st10{fill:#FF60FA;}
	.st11{fill:none;stroke:#9A9AFF;stroke-width:12.6902;stroke-miterlimit:10;}
	.st12{fill:#9A9AFF;}
</style>
<g>
	<g>
		<rect x="122" y="576.1" class="st0" width="6.1" height="189.7"/>
		<rect x="373.2" y="474.6" class="st0" width="6.1" height="210.5"/>
		<rect x="524.4" y="474.5" class="st0" width="94.8" height="6.1"/>
		<rect x="864.1" y="473.6" class="st0" width="6.1" height="210.5"/>
		<rect x="577.4" y="363.3" class="st0" width="6.1" height="321.8"/>
		<path class="st0" d="M226.4,683.3c-57.6,0-104.4-46.8-104.4-104.4c0-57.6,46.8-104.4,104.4-104.4s104.4,46.8,104.4,104.4
			C330.8,636.5,284,683.3,226.4,683.3z M226.4,480.6c-54.2,0-98.3,44.1-98.3,98.3c0,54.2,44.1,98.3,98.3,98.3s98.3-44.1,98.3-98.3
			C324.7,524.7,280.6,480.6,226.4,480.6z"/>
		<path class="st0" d="M524.4,683.3c-57.6,0-104.4-46.8-104.4-104.4c0-57.6,46.8-104.4,104.4-104.4v6.1c-54.2,0-98.3,44.1-98.3,98.3
			c0,54.2,44.1,98.3,98.3,98.3V683.3z"/>
		<path class="st0" d="M870.2,578.9h-6.1c0-57.6,46.8-104.4,104.4-104.4v6.1C914.3,480.6,870.2,524.7,870.2,578.9z"/>
		<circle class="st0" cx="533.3" cy="479.5" r="15.1"/>
	</g>
	<circle class="st0" cx="662.6" cy="507.2" r="15.1"/>
	<circle class="st0" cx="796.5" cy="508.3" r="15.1"/>
	<circle class="st0" cx="634.5" cy="575.6" r="15.1"/>
	<circle class="st0" cx="824.7" cy="575.9" r="15.1"/>
	<g>
		<circle class="st0" cx="660.7" cy="642.9" r="15.1"/>
		<circle class="st0" cx="798.5" cy="642.9" r="15.1"/>
	</g>
	<g>
		<circle class="st0" cx="729.6" cy="479.1" r="15.1"/>
		<circle class="st0" cx="729.6" cy="670.2" r="15.1"/>
		<circle class="st0" cx="729.6" cy="575.6" r="15.1"/>
	</g>
</g>
</svg>
