<?xml version="1.0" encoding="utf-8"?>
<!-- Generator: Adobe Illustrator 27.2.0, SVG Export Plug-In . SVG Version: 6.00 Build 0)  -->
<svg version="1.1" id="Capa_1" xmlns="http://www.w3.org/2000/svg" xmlns:xlink="http://www.w3.org/1999/xlink" x="0px" y="0px"
	 viewBox="0 0 1080 430.8" style="enable-background:new 0 0 1080 430.8;" xml:space="preserve">
<style type="text/css">
	.st0{fill:#FFFFFF;}
</style>
<g>
	<g>
		<rect x="122" y="226.7" class="st0" width="6.1" height="189.7"/>
		<rect x="373.2" y="125.2" class="st0" width="6.1" height="210.5"/>
		<rect x="524.4" y="125.1" class="st0" width="94.8" height="6.1"/>
		<rect x="864.1" y="124.2" class="st0" width="6.1" height="210.5"/>
		<rect x="577.4" y="13.9" class="st0" width="6.1" height="321.8"/>
		<path class="st0" d="M226.4,333.9c-57.6,0-104.4-46.8-104.4-104.4c0-57.6,46.8-104.4,104.4-104.4s104.4,46.8,104.4,104.4
			C330.8,287.1,284,333.9,226.4,333.9z M226.4,131.2c-54.2,0-98.3,44.1-98.3,98.3s44.1,98.3,98.3,98.3s98.3-44.1,98.3-98.3
			S280.6,131.2,226.4,131.2z"/>
		<path class="st0" d="M524.4,333.9c-57.6,0-104.4-46.8-104.4-104.4c0-57.6,46.8-104.4,104.4-104.4v6.1c-54.2,0-98.3,44.1-98.3,98.3
			s44.1,98.3,98.3,98.3V333.9z"/>
		<path class="st0" d="M870.2,229.5h-6.1c0-57.6,46.8-104.4,104.4-104.4v6.1C914.3,131.2,870.2,175.3,870.2,229.5z"/>
		<circle class="st0" cx="533.3" cy="130.1" r="15.1"/>
	</g>
	<circle class="st0" cx="662.6" cy="157.8" r="15.1"/>
	<circle class="st0" cx="796.5" cy="158.9" r="15.1"/>
	<circle class="st0" cx="634.5" cy="226.2" r="15.1"/>
	<circle class="st0" cx="824.7" cy="226.5" r="15.1"/>
	<g>
		<circle class="st0" cx="660.7" cy="293.5" r="15.1"/>
		<circle class="st0" cx="798.5" cy="293.5" r="15.1"/>
	</g>
	<g>
		<circle class="st0" cx="729.6" cy="129.7" r="15.1"/>
		<circle class="st0" cx="729.6" cy="320.8" r="15.1"/>
		<circle class="st0" cx="729.6" cy="226.2" r="15.1"/>
	</g>
</g>
</svg>
